<?xml version="1.0" encoding="us-ascii" standalone="no"?><svg xmlns="http://www.w3.org/2000/svg" xmlns:xlink="http://www.w3.org/1999/xlink" contentStyleType="text/css" height="1026px" preserveAspectRatio="none" style="width:2120px;height:1026px;background:#FFFFFF;" version="1.1" viewBox="0 0 2120 1026" width="2120px" zoomAndPan="magnify"><defs/><g><text fill="#000000" font-family="sans-serif" font-size="14" font-weight="bold" lengthAdjust="spacing" textLength="316" x="895" y="24.5332">Diagram Klas &#8212; System Kancelarii Parafialnej</text><!--cluster System i Uprawnienia--><g id="cluster_System i Uprawnienia"><path d="M8.5,44.6094 L158.5,44.6094 A3.75,3.75 0 0 1 161,47.1094 L168,68.2188 L343.5,68.2188 A2.5,2.5 0 0 1 346,70.7188 L346,521.6094 A2.5,2.5 0 0 1 343.5,524.1094 L8.5,524.1094 A2.5,2.5 0 0 1 6,521.6094 L6,47.1094 A2.5,2.5 0 0 1 8.5,44.6094 " fill="none" style="stroke:#000000;stroke-width:1.5;"/><line style="stroke:#000000;stroke-width:1.5;" x1="6" x2="168" y1="68.2188" y2="68.2188"/><text fill="#000000" font-family="sans-serif" font-size="14" font-weight="bold" lengthAdjust="spacing" textLength="149" x="10" y="61.1426">System i Uprawnienia</text></g><!--cluster S?owniki--><g id="cluster_S&#322;owniki"><path d="M1117.5,731.6094 L1176.5,731.6094 A3.75,3.75 0 0 1 1179,734.1094 L1186,755.2188 L1408.5,755.2188 A2.5,2.5 0 0 1 1411,757.7188 L1411,1017.1094 A2.5,2.5 0 0 1 1408.5,1019.6094 L1117.5,1019.6094 A2.5,2.5 0 0 1 1115,1017.1094 L1115,734.1094 A2.5,2.5 0 0 1 1117.5,731.6094 " fill="none" style="stroke:#000000;stroke-width:1.5;"/><line style="stroke:#000000;stroke-width:1.5;" x1="1115" x2="1186" y1="755.2188" y2="755.2188"/><text fill="#000000" font-family="sans-serif" font-size="14" font-weight="bold" lengthAdjust="spacing" textLength="58" x="1119" y="748.1426">S&#322;owniki</text></g><!--cluster Kartoteki (Core)--><g id="cluster_Kartoteki (Core)"><path d="M602.5,383.6094 L715.5,383.6094 A3.75,3.75 0 0 1 718,386.1094 L725,407.2188 L1084.5,407.2188 A2.5,2.5 0 0 1 1087,409.7188 L1087,705.1094 A2.5,2.5 0 0 1 1084.5,707.6094 L602.5,707.6094 A2.5,2.5 0 0 1 600,705.1094 L600,386.1094 A2.5,2.5 0 0 1 602.5,383.6094 " fill="none" style="stroke:#000000;stroke-width:1.5;"/><line style="stroke:#000000;stroke-width:1.5;" x1="600" x2="725" y1="407.2188" y2="407.2188"/><text fill="#000000" font-family="sans-serif" font-size="14" font-weight="bold" lengthAdjust="spacing" textLength="112" x="604" y="400.1426">Kartoteki (Core)</text></g><!--cluster Liturgia--><g id="cluster_Liturgia"><path d="M1223.5,44.6094 L1277.5,44.6094 A3.75,3.75 0 0 1 1280,47.1094 L1287,68.2188 L1488.5,68.2188 A2.5,2.5 0 0 1 1491,70.7188 L1491,357.1094 A2.5,2.5 0 0 1 1488.5,359.6094 L1223.5,359.6094 A2.5,2.5 0 0 1 1221,357.1094 L1221,47.1094 A2.5,2.5 0 0 1 1223.5,44.6094 " fill="none" style="stroke:#000000;stroke-width:1.5;"/><line style="stroke:#000000;stroke-width:1.5;" x1="1221" x2="1287" y1="68.2188" y2="68.2188"/><text fill="#000000" font-family="sans-serif" font-size="14" font-weight="bold" lengthAdjust="spacing" textLength="53" x="1225" y="61.1426">Liturgia</text></g><!--cluster Ksi?gi Sakramentalne--><g id="cluster_Ksi&#281;gi Sakramentalne"><path d="M1163.5,567.6094 L1316.5,567.6094 A3.75,3.75 0 0 1 1319,570.1094 L1326,591.2188 L2110.5,591.2188 A2.5,2.5 0 0 1 2113,593.7188 L2113,705.1094 A2.5,2.5 0 0 1 2110.5,707.6094 L1163.5,707.6094 A2.5,2.5 0 0 1 1161,705.1094 L1161,570.1094 A2.5,2.5 0 0 1 1163.5,567.6094 " fill="none" style="stroke:#000000;stroke-width:1.5;"/><line style="stroke:#000000;stroke-width:1.5;" x1="1161" x2="1326" y1="591.2188" y2="591.2188"/><text fill="#000000" font-family="sans-serif" font-size="14" font-weight="bold" lengthAdjust="spacing" textLength="152" x="1165" y="584.1426">Ksi&#281;gi Sakramentalne</text></g><!--cluster Cmentarz--><g id="cluster_Cmentarz"><path d="M372.5,62.1094 L439.5,62.1094 A3.75,3.75 0 0 1 442,64.6094 L449,85.7188 L573.5,85.7188 A2.5,2.5 0 0 1 576,88.2188 L576,521.6094 A2.5,2.5 0 0 1 573.5,524.1094 L372.5,524.1094 A2.5,2.5 0 0 1 370,521.6094 L370,64.6094 A2.5,2.5 0 0 1 372.5,62.1094 " fill="none" style="stroke:#000000;stroke-width:1.5;"/><line style="stroke:#000000;stroke-width:1.5;" x1="370" x2="449" y1="85.7188" y2="85.7188"/><text fill="#000000" font-family="sans-serif" font-size="14" font-weight="bold" lengthAdjust="spacing" textLength="66" x="374" y="78.6426">Cmentarz</text></g><!--class User--><g id="elem_User"><rect codeLine="19" fill="#FFFFFF" height="88.4375" id="User" rx="2.5" ry="2.5" style="stroke:#000000;stroke-width:0.5;" width="143" x="104.5" y="255.6094"/><text fill="#000000" font-family="sans-serif" font-size="14" lengthAdjust="spacing" textLength="29" x="161.5" y="275.1426">User</text><line style="stroke:#000000;stroke-width:0.5;" x1="105.5" x2="246.5" y1="283.2188" y2="283.2188"/><ellipse cx="115.5" cy="297.5234" fill="none" rx="3" ry="3" style="stroke:#545454;stroke-width:1.0;"/><text fill="#000000" font-family="sans-serif" font-size="14" lengthAdjust="spacing" textLength="87" x="124.5" y="301.752">username: str</text><ellipse cx="115.5" cy="315.1328" fill="none" rx="3" ry="3" style="stroke:#545454;stroke-width:1.0;"/><text fill="#000000" font-family="sans-serif" font-size="14" lengthAdjust="spacing" textLength="90" x="124.5" y="319.3613">is_active: bool</text><ellipse cx="115.5" cy="332.7422" fill="none" rx="3" ry="3" style="stroke:#545454;stroke-width:1.0;"/><text fill="#000000" font-family="sans-serif" font-size="14" lengthAdjust="spacing" textLength="117" x="124.5" y="336.9707">is_superuser: bool</text></g><!--class Profil--><g id="elem_Profil"><rect codeLine="25" fill="#FFFFFF" height="53.2188" id="Profil" rx="2.5" ry="2.5" style="stroke:#000000;stroke-width:0.5;" width="308" x="22" y="455.1094"/><text fill="#000000" font-family="sans-serif" font-size="14" lengthAdjust="spacing" textLength="32" x="160" y="474.6426">Profil</text><line style="stroke:#000000;stroke-width:0.5;" x1="23" x2="329" y1="482.7188" y2="482.7188"/><ellipse cx="33" cy="497.0234" fill="none" rx="3" ry="3" style="stroke:#545454;stroke-width:1.0;"/><text fill="#000000" font-family="sans-serif" font-size="14" lengthAdjust="spacing" textLength="282" x="42" y="501.252">rola: enum {ADMIN, KSIAZD, SEKRETARIAT}</text></g><!--class LogAkcji--><g id="elem_LogAkcji"><rect codeLine="29" fill="#FFFFFF" height="106.0469" id="LogAkcji" rx="2.5" ry="2.5" style="stroke:#000000;stroke-width:0.5;" width="121" x="115.5" y="80.6094"/><text fill="#000000" font-family="sans-serif" font-size="14" lengthAdjust="spacing" textLength="53" x="149.5" y="100.1426">LogAkcji</text><line style="stroke:#000000;stroke-width:0.5;" x1="116.5" x2="235.5" y1="108.2188" y2="108.2188"/><ellipse cx="126.5" cy="122.5234" fill="none" rx="3" ry="3" style="stroke:#545454;stroke-width:1.0;"/><text fill="#000000" font-family="sans-serif" font-size="14" lengthAdjust="spacing" textLength="57" x="135.5" y="126.752">akcja: str</text><ellipse cx="126.5" cy="140.1328" fill="none" rx="3" ry="3" style="stroke:#545454;stroke-width:1.0;"/><text fill="#000000" font-family="sans-serif" font-size="14" lengthAdjust="spacing" textLength="95" x="135.5" y="144.3613">kiedy: datetime</text><ellipse cx="126.5" cy="157.7422" fill="none" rx="3" ry="3" style="stroke:#545454;stroke-width:1.0;"/><text fill="#000000" font-family="sans-serif" font-size="14" lengthAdjust="spacing" textLength="62" x="135.5" y="161.9707">model: str</text><ellipse cx="126.5" cy="175.3516" fill="none" rx="3" ry="3" style="stroke:#545454;stroke-width:1.0;"/><text fill="#000000" font-family="sans-serif" font-size="14" lengthAdjust="spacing" textLength="56" x="135.5" y="179.5801">opis: text</text></g><!--class Parafia--><g id="elem_Parafia"><rect codeLine="44" fill="#FFFFFF" height="88.4375" id="Parafia" rx="2.5" ry="2.5" style="stroke:#000000;stroke-width:0.5;" width="128" x="1267" y="915.6094"/><text fill="#000000" font-family="sans-serif" font-size="14" lengthAdjust="spacing" textLength="45" x="1308.5" y="935.1426">Parafia</text><line style="stroke:#000000;stroke-width:0.5;" x1="1268" x2="1394" y1="943.2188" y2="943.2188"/><ellipse cx="1278" cy="957.5234" fill="none" rx="3" ry="3" style="stroke:#545454;stroke-width:1.0;"/><text fill="#000000" font-family="sans-serif" font-size="14" lengthAdjust="spacing" textLength="63" x="1287" y="961.752">nazwa: str</text><ellipse cx="1278" cy="975.1328" fill="none" rx="3" ry="3" style="stroke:#545454;stroke-width:1.0;"/><text fill="#000000" font-family="sans-serif" font-size="14" lengthAdjust="spacing" textLength="102" x="1287" y="979.3613">miejscowosc: str</text><ellipse cx="1278" cy="992.7422" fill="none" rx="3" ry="3" style="stroke:#545454;stroke-width:1.0;"/><text fill="#000000" font-family="sans-serif" font-size="14" lengthAdjust="spacing" textLength="75" x="1287" y="996.9707">diecezja: str</text></g><!--class Duchowny--><g id="elem_Duchowny"><rect codeLine="50" fill="#FFFFFF" height="88.4375" id="Duchowny" rx="2.5" ry="2.5" style="stroke:#000000;stroke-width:0.5;" width="139" x="1255.5" y="767.6094"/><text fill="#000000" font-family="sans-serif" font-size="14" lengthAdjust="spacing" textLength="65" x="1292.5" y="787.1426">Duchowny</text><line style="stroke:#000000;stroke-width:0.5;" x1="1256.5" x2="1393.5" y1="795.2188" y2="795.2188"/><ellipse cx="1266.5" cy="809.5234" fill="none" rx="3" ry="3" style="stroke:#545454;stroke-width:1.0;"/><text fill="#000000" font-family="sans-serif" font-size="14" lengthAdjust="spacing" textLength="113" x="1275.5" y="813.752">imie_nazwisko: str</text><ellipse cx="1266.5" cy="827.1328" fill="none" rx="3" ry="3" style="stroke:#545454;stroke-width:1.0;"/><text fill="#000000" font-family="sans-serif" font-size="14" lengthAdjust="spacing" textLength="69" x="1275.5" y="831.3613">tytul: enum</text><ellipse cx="1266.5" cy="844.7422" fill="none" rx="3" ry="3" style="stroke:#545454;stroke-width:1.0;"/><text fill="#000000" font-family="sans-serif" font-size="14" lengthAdjust="spacing" textLength="85" x="1275.5" y="848.9707">aktywny: bool</text></g><!--class Wyznanie--><g id="elem_Wyznanie"><rect codeLine="56" fill="#FFFFFF" height="53.2188" id="Wyznanie" rx="2.5" ry="2.5" style="stroke:#000000;stroke-width:0.5;" width="89" x="1131.5" y="785.1094"/><text fill="#000000" font-family="sans-serif" font-size="14" lengthAdjust="spacing" textLength="61" x="1145.5" y="804.6426">Wyznanie</text><line style="stroke:#000000;stroke-width:0.5;" x1="1132.5" x2="1219.5" y1="812.7188" y2="812.7188"/><ellipse cx="1142.5" cy="827.0234" fill="none" rx="3" ry="3" style="stroke:#545454;stroke-width:1.0;"/><text fill="#000000" font-family="sans-serif" font-size="14" lengthAdjust="spacing" textLength="63" x="1151.5" y="831.252">nazwa: str</text></g><!--class Osoba--><g id="elem_Osoba"><rect codeLine="67" fill="#FFFFFF" height="123.6563" id="Osoba" rx="2.5" ry="2.5" style="stroke:#000000;stroke-width:0.5;" width="160" x="911" y="419.6094"/><text fill="#000000" font-family="sans-serif" font-size="14" lengthAdjust="spacing" textLength="42" x="970" y="439.1426">Osoba</text><line style="stroke:#000000;stroke-width:0.5;" x1="912" x2="1070" y1="447.2188" y2="447.2188"/><ellipse cx="922" cy="461.5234" fill="none" rx="3" ry="3" style="stroke:#545454;stroke-width:1.0;"/><text fill="#000000" font-family="sans-serif" font-size="14" lengthAdjust="spacing" textLength="49" x="931" y="465.752">imie: str</text><ellipse cx="922" cy="479.1328" fill="none" rx="3" ry="3" style="stroke:#545454;stroke-width:1.0;"/><text fill="#000000" font-family="sans-serif" font-size="14" lengthAdjust="spacing" textLength="80" x="931" y="483.3613">nazwisko: str</text><ellipse cx="922" cy="496.7422" fill="none" rx="3" ry="3" style="stroke:#545454;stroke-width:1.0;"/><text fill="#000000" font-family="sans-serif" font-size="14" lengthAdjust="spacing" textLength="134" x="931" y="500.9707">data_urodzenia: date</text><ellipse cx="922" cy="514.3516" fill="none" rx="3" ry="3" style="stroke:#545454;stroke-width:1.0;"/><text fill="#000000" font-family="sans-serif" font-size="14" lengthAdjust="spacing" textLength="110" x="931" y="518.5801">data_zgonu: date</text><ellipse cx="922" cy="531.9609" fill="none" rx="3" ry="3" style="stroke:#545454;stroke-width:1.0;"/><text fill="#000000" font-family="sans-serif" font-size="14" lengthAdjust="spacing" textLength="60" x="931" y="536.1895">adres: str</text></g><!--class Rodzina--><g id="elem_Rodzina"><rect codeLine="75" fill="#FFFFFF" height="70.8281" id="Rodzina" rx="2.5" ry="2.5" style="stroke:#000000;stroke-width:0.5;" width="89" x="713.5" y="446.1094"/><text fill="#000000" font-family="sans-serif" font-size="14" lengthAdjust="spacing" textLength="51" x="732.5" y="465.6426">Rodzina</text><line style="stroke:#000000;stroke-width:0.5;" x1="714.5" x2="801.5" y1="473.7188" y2="473.7188"/><ellipse cx="724.5" cy="488.0234" fill="none" rx="3" ry="3" style="stroke:#545454;stroke-width:1.0;"/><text fill="#000000" font-family="sans-serif" font-size="14" lengthAdjust="spacing" textLength="63" x="733.5" y="492.252">nazwa: str</text><ellipse cx="724.5" cy="505.6328" fill="none" rx="3" ry="3" style="stroke:#545454;stroke-width:1.0;"/><text fill="#000000" font-family="sans-serif" font-size="14" lengthAdjust="spacing" textLength="60" x="733.5" y="509.8613">adres: str</text></g><!--class CzlonkostwoRodziny--><g id="elem_CzlonkostwoRodziny"><rect codeLine="80" fill="#FFFFFF" height="70.8281" id="CzlonkostwoRodziny" rx="2.5" ry="2.5" style="stroke:#000000;stroke-width:0.5;" width="279" x="791.5" y="612.1094"/><text fill="#000000" font-family="sans-serif" font-size="14" lengthAdjust="spacing" textLength="128" x="867" y="631.6426">CzlonkostwoRodziny</text><line style="stroke:#000000;stroke-width:0.5;" x1="792.5" x2="1069.5" y1="639.7188" y2="639.7188"/><ellipse cx="802.5" cy="654.0234" fill="none" rx="3" ry="3" style="stroke:#545454;stroke-width:1.0;"/><text fill="#000000" font-family="sans-serif" font-size="14" lengthAdjust="spacing" textLength="215" x="811.5" y="658.252">rola: enum {M&#261;&#380;, &#379;ona, Dziecko...}</text><ellipse cx="802.5" cy="671.6328" fill="none" rx="3" ry="3" style="stroke:#545454;stroke-width:1.0;"/><text fill="#000000" font-family="sans-serif" font-size="14" lengthAdjust="spacing" textLength="253" x="811.5" y="675.8613">status: enum {Mieszka, Wyprowadzi&#322; si&#281;}</text></g><!--class WizytaDuszpasterska--><g id="elem_WizytaDuszpasterska"><rect codeLine="85" fill="#FFFFFF" height="88.4375" id="WizytaDuszpasterska" rx="2.5" ry="2.5" style="stroke:#000000;stroke-width:0.5;" width="140" x="616" y="603.6094"/><text fill="#000000" font-family="sans-serif" font-size="14" lengthAdjust="spacing" textLength="134" x="619" y="623.1426">WizytaDuszpasterska</text><line style="stroke:#000000;stroke-width:0.5;" x1="617" x2="755" y1="631.2188" y2="631.2188"/><ellipse cx="627" cy="645.5234" fill="none" rx="3" ry="3" style="stroke:#545454;stroke-width:1.0;"/><text fill="#000000" font-family="sans-serif" font-size="14" lengthAdjust="spacing" textLength="43" x="636" y="649.752">rok: int</text><ellipse cx="627" cy="663.1328" fill="none" rx="3" ry="3" style="stroke:#545454;stroke-width:1.0;"/><text fill="#000000" font-family="sans-serif" font-size="14" lengthAdjust="spacing" textLength="81" x="636" y="667.3613">status: enum</text><ellipse cx="627" cy="680.7422" fill="none" rx="3" ry="3" style="stroke:#545454;stroke-width:1.0;"/><text fill="#000000" font-family="sans-serif" font-size="14" lengthAdjust="spacing" textLength="60" x="636" y="684.9707">ofiara: str</text></g><!--class Msza--><g id="elem_Msza"><rect codeLine="103" fill="#FFFFFF" height="106.0469" id="Msza" rx="2.5" ry="2.5" style="stroke:#000000;stroke-width:0.5;" width="122" x="1295" y="80.6094"/><text fill="#000000" font-family="sans-serif" font-size="14" lengthAdjust="spacing" textLength="32" x="1340" y="100.1426">Msza</text><line style="stroke:#000000;stroke-width:0.5;" x1="1296" x2="1416" y1="108.2188" y2="108.2188"/><ellipse cx="1306" cy="122.5234" fill="none" rx="3" ry="3" style="stroke:#545454;stroke-width:1.0;"/><text fill="#000000" font-family="sans-serif" font-size="14" lengthAdjust="spacing" textLength="64" x="1315" y="126.752">data: date</text><ellipse cx="1306" cy="140.1328" fill="none" rx="3" ry="3" style="stroke:#545454;stroke-width:1.0;"/><text fill="#000000" font-family="sans-serif" font-size="14" lengthAdjust="spacing" textLength="83" x="1315" y="144.3613">godzina: time</text><ellipse cx="1306" cy="157.7422" fill="none" rx="3" ry="3" style="stroke:#545454;stroke-width:1.0;"/><text fill="#000000" font-family="sans-serif" font-size="14" lengthAdjust="spacing" textLength="43" x="1315" y="161.9707">typ: str</text><ellipse cx="1306" cy="175.3516" fill="none" rx="3" ry="3" style="stroke:#545454;stroke-width:1.0;"/><text fill="#000000" font-family="sans-serif" font-size="14" lengthAdjust="spacing" textLength="96" x="1315" y="179.5801">celebrujacy: str</text></g><!--class Intencja--><g id="elem_Intencja"><rect codeLine="110" fill="#FFFFFF" height="88.4375" id="Intencja" rx="2.5" ry="2.5" style="stroke:#000000;stroke-width:0.5;" width="238" x="1237" y="255.6094"/><text fill="#000000" font-family="sans-serif" font-size="14" lengthAdjust="spacing" textLength="49" x="1331.5" y="275.1426">Intencja</text><line style="stroke:#000000;stroke-width:0.5;" x1="1238" x2="1474" y1="283.2188" y2="283.2188"/><ellipse cx="1248" cy="297.5234" fill="none" rx="3" ry="3" style="stroke:#545454;stroke-width:1.0;"/><text fill="#000000" font-family="sans-serif" font-size="14" lengthAdjust="spacing" textLength="61" x="1257" y="301.752">tresc: text</text><ellipse cx="1248" cy="315.1328" fill="none" rx="3" ry="3" style="stroke:#545454;stroke-width:1.0;"/><text fill="#000000" font-family="sans-serif" font-size="14" lengthAdjust="spacing" textLength="60" x="1257" y="319.3613">ofiara: str</text><ellipse cx="1248" cy="332.7422" fill="none" rx="3" ry="3" style="stroke:#545454;stroke-width:1.0;"/><text fill="#000000" font-family="sans-serif" font-size="14" lengthAdjust="spacing" textLength="212" x="1257" y="336.9707">typ: enum {Zwyk&#322;a, Gregoria&#324;ska}</text></g><!--class Chrzest--><g id="elem_Chrzest"><rect codeLine="123" fill="#FFFFFF" height="88.4375" id="Chrzest" rx="2.5" ry="2.5" style="stroke:#000000;stroke-width:0.5;" width="136" x="1380" y="603.6094"/><text fill="#000000" font-family="sans-serif" font-size="14" lengthAdjust="spacing" textLength="48" x="1424" y="623.1426">Chrzest</text><line style="stroke:#000000;stroke-width:0.5;" x1="1381" x2="1515" y1="631.2188" y2="631.2188"/><ellipse cx="1391" cy="645.5234" fill="none" rx="3" ry="3" style="stroke:#545454;stroke-width:1.0;"/><text fill="#000000" font-family="sans-serif" font-size="14" lengthAdjust="spacing" textLength="64" x="1400" y="649.752">akt_nr: str</text><ellipse cx="1391" cy="663.1328" fill="none" rx="3" ry="3" style="stroke:#545454;stroke-width:1.0;"/><text fill="#000000" font-family="sans-serif" font-size="14" lengthAdjust="spacing" textLength="43" x="1400" y="667.3613">rok: int</text><ellipse cx="1391" cy="680.7422" fill="none" rx="3" ry="3" style="stroke:#545454;stroke-width:1.0;"/><text fill="#000000" font-family="sans-serif" font-size="14" lengthAdjust="spacing" textLength="110" x="1400" y="684.9707">data_chrztu: date</text></g><!--class Bierzmowanie--><g id="elem_Bierzmowanie"><rect codeLine="129" fill="#FFFFFF" height="70.8281" id="Bierzmowanie" rx="2.5" ry="2.5" style="stroke:#000000;stroke-width:0.5;" width="168" x="1177" y="612.1094"/><text fill="#000000" font-family="sans-serif" font-size="14" lengthAdjust="spacing" textLength="86" x="1218" y="631.6426">Bierzmowanie</text><line style="stroke:#000000;stroke-width:0.5;" x1="1178" x2="1344" y1="639.7188" y2="639.7188"/><ellipse cx="1188" cy="654.0234" fill="none" rx="3" ry="3" style="stroke:#545454;stroke-width:1.0;"/><text fill="#000000" font-family="sans-serif" font-size="14" lengthAdjust="spacing" textLength="64" x="1197" y="658.252">akt_nr: str</text><ellipse cx="1188" cy="671.6328" fill="none" rx="3" ry="3" style="stroke:#545454;stroke-width:1.0;"/><text fill="#000000" font-family="sans-serif" font-size="14" lengthAdjust="spacing" textLength="142" x="1197" y="675.8613">imie_bierzmowania: str</text></g><!--class Malzenstwo--><g id="elem_Malzenstwo"><rect codeLine="134" fill="#FFFFFF" height="70.8281" id="Malzenstwo" rx="2.5" ry="2.5" style="stroke:#000000;stroke-width:0.5;" width="132" x="1794" y="612.1094"/><text fill="#000000" font-family="sans-serif" font-size="14" lengthAdjust="spacing" textLength="72" x="1824" y="631.6426">Malzenstwo</text><line style="stroke:#000000;stroke-width:0.5;" x1="1795" x2="1925" y1="639.7188" y2="639.7188"/><ellipse cx="1805" cy="654.0234" fill="none" rx="3" ry="3" style="stroke:#545454;stroke-width:1.0;"/><text fill="#000000" font-family="sans-serif" font-size="14" lengthAdjust="spacing" textLength="64" x="1814" y="658.252">akt_nr: str</text><ellipse cx="1805" cy="671.6328" fill="none" rx="3" ry="3" style="stroke:#545454;stroke-width:1.0;"/><text fill="#000000" font-family="sans-serif" font-size="14" lengthAdjust="spacing" textLength="106" x="1814" y="675.8613">data_slubu: date</text></g><!--class Zgon--><g id="elem_Zgon"><rect codeLine="139" fill="#FFFFFF" height="70.8281" id="Zgon" rx="2.5" ry="2.5" style="stroke:#000000;stroke-width:0.5;" width="136" x="1961" y="612.1094"/><text fill="#000000" font-family="sans-serif" font-size="14" lengthAdjust="spacing" textLength="32" x="2013" y="631.6426">Zgon</text><line style="stroke:#000000;stroke-width:0.5;" x1="1962" x2="2096" y1="639.7188" y2="639.7188"/><ellipse cx="1972" cy="654.0234" fill="none" rx="3" ry="3" style="stroke:#545454;stroke-width:1.0;"/><text fill="#000000" font-family="sans-serif" font-size="14" lengthAdjust="spacing" textLength="64" x="1981" y="658.252">akt_nr: str</text><ellipse cx="1972" cy="671.6328" fill="none" rx="3" ry="3" style="stroke:#545454;stroke-width:1.0;"/><text fill="#000000" font-family="sans-serif" font-size="14" lengthAdjust="spacing" textLength="110" x="1981" y="675.8613">data_zgonu: date</text></g><!--class NamaszczenieChorych--><g id="elem_NamaszczenieChorych"><rect codeLine="144" fill="#FFFFFF" height="70.8281" id="NamaszczenieChorych" rx="2.5" ry="2.5" style="stroke:#000000;stroke-width:0.5;" width="208" x="1551" y="612.1094"/><text fill="#000000" font-family="sans-serif" font-size="14" lengthAdjust="spacing" textLength="142" x="1584" y="631.6426">NamaszczenieChorych</text><line style="stroke:#000000;stroke-width:0.5;" x1="1552" x2="1758" y1="639.7188" y2="639.7188"/><ellipse cx="1562" cy="654.0234" fill="none" rx="3" ry="3" style="stroke:#545454;stroke-width:1.0;"/><text fill="#000000" font-family="sans-serif" font-size="14" lengthAdjust="spacing" textLength="64" x="1571" y="658.252">data: date</text><ellipse cx="1562" cy="671.6328" fill="none" rx="3" ry="3" style="stroke:#545454;stroke-width:1.0;"/><text fill="#000000" font-family="sans-serif" font-size="14" lengthAdjust="spacing" textLength="182" x="1571" y="675.8613">miejsce: enum {Dom, Szpital}</text></g><!--class Sektor--><g id="elem_Sektor"><rect codeLine="169" fill="#FFFFFF" height="70.8281" id="Sektor" rx="2.5" ry="2.5" style="stroke:#000000;stroke-width:0.5;" width="89" x="453.5" y="98.1094"/><text fill="#000000" font-family="sans-serif" font-size="14" lengthAdjust="spacing" textLength="41" x="477.5" y="117.6426">Sektor</text><line style="stroke:#000000;stroke-width:0.5;" x1="454.5" x2="541.5" y1="125.7188" y2="125.7188"/><ellipse cx="464.5" cy="140.0234" fill="none" rx="3" ry="3" style="stroke:#545454;stroke-width:1.0;"/><text fill="#000000" font-family="sans-serif" font-size="14" lengthAdjust="spacing" textLength="63" x="473.5" y="144.252">nazwa: str</text><ellipse cx="464.5" cy="157.6328" fill="none" rx="3" ry="3" style="stroke:#545454;stroke-width:1.0;"/><text fill="#000000" font-family="sans-serif" font-size="14" lengthAdjust="spacing" textLength="56" x="473.5" y="161.8613">opis: text</text></g><!--class Grob--><g id="elem_Grob"><rect codeLine="174" fill="#FFFFFF" height="106.0469" id="Grob" rx="2.5" ry="2.5" style="stroke:#000000;stroke-width:0.5;" width="124" x="436" y="246.6094"/><text fill="#000000" font-family="sans-serif" font-size="14" lengthAdjust="spacing" textLength="32" x="482" y="266.1426">Grob</text><line style="stroke:#000000;stroke-width:0.5;" x1="437" x2="559" y1="274.2188" y2="274.2188"/><ellipse cx="447" cy="288.5234" fill="none" rx="3" ry="3" style="stroke:#545454;stroke-width:1.0;"/><text fill="#000000" font-family="sans-serif" font-size="14" lengthAdjust="spacing" textLength="64" x="456" y="292.752">numer: str</text><ellipse cx="447" cy="306.1328" fill="none" rx="3" ry="3" style="stroke:#545454;stroke-width:1.0;"/><text fill="#000000" font-family="sans-serif" font-size="14" lengthAdjust="spacing" textLength="51" x="456" y="310.3613">rzad: str</text><ellipse cx="447" cy="323.7422" fill="none" rx="3" ry="3" style="stroke:#545454;stroke-width:1.0;"/><text fill="#000000" font-family="sans-serif" font-size="14" lengthAdjust="spacing" textLength="62" x="456" y="327.9707">typ: enum</text><ellipse cx="447" cy="341.3516" fill="none" rx="3" ry="3" style="stroke:#545454;stroke-width:1.0;"/><text fill="#000000" font-family="sans-serif" font-size="14" lengthAdjust="spacing" textLength="98" x="456" y="345.5801">wazny_do: date</text></g><!--class Pochowany--><g id="elem_Pochowany"><rect codeLine="181" fill="#FFFFFF" height="53.2188" id="Pochowany" rx="2.5" ry="2.5" style="stroke:#000000;stroke-width:0.5;" width="173" x="386.5" y="455.1094"/><text fill="#000000" font-family="sans-serif" font-size="14" lengthAdjust="spacing" textLength="72" x="437" y="474.6426">Pochowany</text><line style="stroke:#000000;stroke-width:0.5;" x1="387.5" x2="558.5" y1="482.7188" y2="482.7188"/><ellipse cx="397.5" cy="497.0234" fill="none" rx="3" ry="3" style="stroke:#545454;stroke-width:1.0;"/><text fill="#000000" font-family="sans-serif" font-size="14" lengthAdjust="spacing" textLength="147" x="406.5" y="501.252">data_pochowania: date</text></g><!--link User to Profil--><g id="link_User_Profil"><path codeLine="36" d="M176,343.6694 C176,378.3794 176,425.6494 176,454.8694 " fill="none" id="User-Profil" style="stroke:#000000;stroke-width:1.0;"/><text fill="#000000" font-family="sans-serif" font-size="13" lengthAdjust="spacing" textLength="70" x="105" y="395.7645">(OneToOne)</text><text fill="#000000" font-family="sans-serif" font-size="13" lengthAdjust="spacing" textLength="7" x="168.4422" y="365.4547">1</text><text fill="#000000" font-family="sans-serif" font-size="13" lengthAdjust="spacing" textLength="7" x="168.1906" y="444.3462">1</text></g><!--link LogAkcji to User--><g id="link_LogAkcji_User"><path codeLine="37" d="M176,187.0494 C176,209.1294 176,228.4294 176,249.4394 " fill="none" id="LogAkcji-to-User" style="stroke:#000000;stroke-width:1.0;"/><polygon fill="#000000" points="176,255.4394,180,246.4394,176,250.4394,172,246.4394,176,255.4394" style="stroke:#000000;stroke-width:1.0;"/><text fill="#000000" font-family="sans-serif" font-size="13" lengthAdjust="spacing" textLength="80" x="95" y="217.7345">(autorem jest)</text><text fill="#000000" font-family="sans-serif" font-size="13" lengthAdjust="spacing" textLength="5" x="170.6953" y="208.0511">*</text><text fill="#000000" font-family="sans-serif" font-size="13" lengthAdjust="spacing" textLength="22" x="152.2469" y="244.6131">0..1</text></g><!--link Duchowny to Parafia--><g id="link_Duchowny_Parafia"><path codeLine="60" d="M1330.75,855.6094 C1330.75,874.5294 1330.75,890.5894 1330.75,909.5194 " fill="none" id="Duchowny-to-Parafia" style="stroke:#000000;stroke-width:1.0;"/><polygon fill="#000000" points="1330.75,915.5194,1334.75,906.5194,1330.75,910.5194,1326.75,906.5194,1330.75,915.5194" style="stroke:#000000;stroke-width:1.0;"/><text fill="#000000" font-family="sans-serif" font-size="13" lengthAdjust="spacing" textLength="68" x="1331.75" y="882.0645">pos&#322;uguje w</text><text fill="#000000" font-family="sans-serif" font-size="13" lengthAdjust="spacing" textLength="5" x="1326.268" y="877.3851">*</text><text fill="#000000" font-family="sans-serif" font-size="13" lengthAdjust="spacing" textLength="22" x="1306.957" y="904.7058">0..1</text></g><!--reverse link Rodzina to CzlonkostwoRodziny--><g id="link_Rodzina_CzlonkostwoRodziny"><path codeLine="92" d="M797,529.2194 C797,557.2294 797,584.0594 797,612.0594 " fill="none" id="Rodzina-backto-CzlonkostwoRodziny" style="stroke:#000000;stroke-width:1.0;"/><polygon fill="#000000" points="797,517.2194,793,523.2194,797,529.2194,801,523.2194,797,517.2194" style="stroke:#000000;stroke-width:1.0;"/><text fill="#000000" font-family="sans-serif" font-size="13" lengthAdjust="spacing" textLength="7" x="796.3234" y="538.5291">1</text><text fill="#000000" font-family="sans-serif" font-size="13" lengthAdjust="spacing" textLength="5" x="778.5633" y="605.2933">*</text></g><!--reverse link Osoba to CzlonkostwoRodziny--><g id="link_Osoba_CzlonkostwoRodziny"><path codeLine="93" d="M964.17,555.8894 C964.17,578.8894 964.17,592.1594 964.17,611.9994 " fill="none" id="Osoba-backto-CzlonkostwoRodziny" style="stroke:#000000;stroke-width:1.0;"/><polygon fill="#000000" points="964.17,543.8894,960.17,549.8894,964.17,555.8894,968.17,549.8894,964.17,543.8894" style="stroke:#000000;stroke-width:1.0;"/><text fill="#000000" font-family="sans-serif" font-size="13" lengthAdjust="spacing" textLength="7" x="954.0422" y="564.668">1</text><text fill="#000000" font-family="sans-serif" font-size="13" lengthAdjust="spacing" textLength="5" x="965.0165" y="601.2312">*</text></g><!--link Rodzina to WizytaDuszpasterska--><g id="link_Rodzina_WizytaDuszpasterska"><path codeLine="94" d="M734.75,517.2194 C734.75,542.4694 734.75,576.5094 734.75,603.4794 " fill="none" id="Rodzina-WizytaDuszpasterska" style="stroke:#000000;stroke-width:1.0;"/><text fill="#000000" font-family="sans-serif" font-size="13" lengthAdjust="spacing" textLength="7" x="722.9852" y="538.5291">1</text><text fill="#000000" font-family="sans-serif" font-size="13" lengthAdjust="spacing" textLength="5" x="737.1211" y="592.6594">*</text></g><!--link WizytaDuszpasterska to Duchowny--><g id="link_WizytaDuszpasterska_Duchowny"><path codeLine="95" d="M756.16,687.6094 C917.33,687.6094 1300.25,687.6094 1300.25,687.6094 C1300.25,687.6094 1300.25,725.8994 1300.25,761.5394 " fill="none" id="WizytaDuszpasterska-to-Duchowny" style="stroke:#000000;stroke-width:1.0;"/><polygon fill="#000000" points="1300.25,767.5394,1304.25,758.5394,1300.25,762.5394,1296.25,758.5394,1300.25,767.5394" style="stroke:#000000;stroke-width:1.0;"/><text fill="#000000" font-family="sans-serif" font-size="13" lengthAdjust="spacing" textLength="48" x="1019.17" y="702.1045">kol&#281;duje</text><text fill="#000000" font-family="sans-serif" font-size="13" lengthAdjust="spacing" textLength="5" x="764.1072" y="688.5998">*</text><text fill="#000000" font-family="sans-serif" font-size="13" lengthAdjust="spacing" textLength="22" x="1272.5523" y="756.729">0..1</text></g><!--link Osoba to Wyznanie--><g id="link_Osoba_Wyznanie"><path codeLine="96" d="M1071.19,526.6094 C1112.48,526.6094 1154.25,526.6094 1154.25,526.6094 C1154.25,526.6094 1154.25,708.2994 1154.25,779.0494 " fill="none" id="Osoba-to-Wyznanie" style="stroke:#000000;stroke-width:1.0;"/><polygon fill="#000000" points="1154.25,785.0494,1158.25,776.0494,1154.25,780.0494,1150.25,776.0494,1154.25,785.0494" style="stroke:#000000;stroke-width:1.0;"/><text fill="#000000" font-family="sans-serif" font-size="13" lengthAdjust="spacing" textLength="5" x="1079.0714" y="527.6642">*</text><text fill="#000000" font-family="sans-serif" font-size="13" lengthAdjust="spacing" textLength="22" x="1124.2672" y="774.1367">0..1</text></g><!--reverse link Msza to Intencja--><g id="link_Msza_Intencja"><path codeLine="116" d="M1356,199.0494 C1356,221.1294 1356,234.4294 1356,255.4394 " fill="none" id="Msza-backto-Intencja" style="stroke:#000000;stroke-width:1.0;"/><polygon fill="#000000" points="1356,187.0494,1352,193.0494,1356,199.0494,1360,193.0494,1356,187.0494" style="stroke:#000000;stroke-width:1.0;"/><text fill="#000000" font-family="sans-serif" font-size="13" lengthAdjust="spacing" textLength="44" x="1311" y="217.7345">zawiera</text><text fill="#000000" font-family="sans-serif" font-size="13" lengthAdjust="spacing" textLength="7" x="1348.5734" y="208.0511">1</text><text fill="#000000" font-family="sans-serif" font-size="13" lengthAdjust="spacing" textLength="5" x="1350.6016" y="244.6131">*</text></g><!--link Osoba to Chrzest--><g id="link_Osoba_Chrzest"><path codeLine="150" d="M1017.33,543.6194 C1017.33,575.8594 1017.33,608.6094 1017.33,608.6094 C1017.33,608.6094 1258.32,608.6094 1379.76,608.6094 " fill="none" id="Osoba-Chrzest" style="stroke:#000000;stroke-width:1.0;"/><text fill="#000000" font-family="sans-serif" font-size="13" lengthAdjust="spacing" textLength="67" x="1098.05" y="605.1045">ochrzczony</text><text fill="#000000" font-family="sans-serif" font-size="13" lengthAdjust="spacing" textLength="7" x="1012.827" y="564.8099">1</text><text fill="#000000" font-family="sans-serif" font-size="13" lengthAdjust="spacing" textLength="22" x="1350.4284" y="601.2329">0..1</text></g><!--link Osoba to Bierzmowanie--><g id="link_Osoba_Bierzmowanie"><path codeLine="151" d="M1071.12,508.6094 C1132.59,508.6094 1207,508.6094 1207,508.6094 C1207,508.6094 1207,570.6294 1207,611.8094 " fill="none" id="Osoba-Bierzmowanie" style="stroke:#000000;stroke-width:1.0;"/><text fill="#000000" font-family="sans-serif" font-size="13" lengthAdjust="spacing" textLength="76" x="1113.66" y="505.1045">bierzmowany</text><text fill="#000000" font-family="sans-serif" font-size="13" lengthAdjust="spacing" textLength="7" x="1079.09" y="507.9486">1</text><text fill="#000000" font-family="sans-serif" font-size="13" lengthAdjust="spacing" textLength="22" x="1173.0156" y="601.2771">0..1</text></g><!--link Osoba to NamaszczenieChorych--><g id="link_Osoba_NamaszczenieChorych"><path codeLine="152" d="M1071.09,490.6094 C1247.7,490.6094 1655,490.6094 1655,490.6094 C1655,490.6094 1655,565.6594 1655,611.9794 " fill="none" id="Osoba-NamaszczenieChorych" style="stroke:#000000;stroke-width:1.0;"/><text fill="#000000" font-family="sans-serif" font-size="13" lengthAdjust="spacing" textLength="7" x="1079.0572" y="488.2329">1</text><text fill="#000000" font-family="sans-serif" font-size="13" lengthAdjust="spacing" textLength="20" x="1633.0938" y="601.2074">0..*</text></g><!--link Osoba to Zgon--><g id="link_Osoba_Zgon"><path codeLine="153" d="M1071.1,437.6094 C1310.85,437.6094 2006.33,437.6094 2006.33,437.6094 C2006.33,437.6094 2006.33,552.0694 2006.33,611.9894 " fill="none" id="Osoba-Zgon" style="stroke:#000000;stroke-width:1.0;"/><text fill="#000000" font-family="sans-serif" font-size="13" lengthAdjust="spacing" textLength="39" x="1585.9" y="434.1045">zmar&#322;y</text><text fill="#000000" font-family="sans-serif" font-size="13" lengthAdjust="spacing" textLength="7" x="1079.0681" y="430.1814">1</text><text fill="#000000" font-family="sans-serif" font-size="13" lengthAdjust="spacing" textLength="22" x="1977.9117" y="601.2193">0..1</text></g><!--link Malzenstwo to Osoba--><g id="link_Malzenstwo_Osoba"><path codeLine="156" d="M1882,611.9494 C1882,556.4194 1882,455.6094 1882,455.6094 C1882,455.6094 1296.26,455.6094 1077.25,455.6094 " fill="none" id="Malzenstwo-to-Osoba" style="stroke:#000000;stroke-width:1.0;"/><polygon fill="#000000" points="1071.25,455.6094,1080.25,459.6094,1076.25,455.6094,1080.25,451.6094,1071.25,455.6094" style="stroke:#000000;stroke-width:1.0;"/><text fill="#000000" font-family="sans-serif" font-size="13" lengthAdjust="spacing" textLength="25" x="1528.79" y="452.1045">m&#261;&#380;</text><text fill="#000000" font-family="sans-serif" font-size="13" lengthAdjust="spacing" textLength="5" x="1880.7172" y="601.1717">*</text><text fill="#000000" font-family="sans-serif" font-size="13" lengthAdjust="spacing" textLength="7" x="1078.9707" y="450.0022">1</text></g><!--link Malzenstwo to Osoba--><g id="link_Malzenstwo_Osoba"><path codeLine="157" d="M1838,611.9794 C1838,561.0694 1838,473.6094 1838,473.6094 C1838,473.6094 1288.2,473.6094 1077.07,473.6094 " fill="none" id="Malzenstwo-to-Osoba-1" style="stroke:#000000;stroke-width:1.0;"/><polygon fill="#000000" points="1071.07,473.6094,1080.07,477.6094,1076.07,473.6094,1080.07,469.6094,1071.07,473.6094" style="stroke:#000000;stroke-width:1.0;"/><text fill="#000000" font-family="sans-serif" font-size="13" lengthAdjust="spacing" textLength="28" x="1494.72" y="470.1045">&#380;ona</text><text fill="#000000" font-family="sans-serif" font-size="13" lengthAdjust="spacing" textLength="5" x="1828.3297" y="601.2074">*</text><text fill="#000000" font-family="sans-serif" font-size="13" lengthAdjust="spacing" textLength="7" x="1079.0353" y="469.6126">1</text></g><!--link Chrzest to Parafia--><g id="link_Chrzest_Parafia"><path codeLine="160" d="M1455.5,691.8994 C1455.5,774.9194 1455.5,945.6094 1455.5,945.6094 C1455.5,945.6094 1431.58,945.6094 1401.07,945.6094 " fill="none" id="Chrzest-to-Parafia" style="stroke:#000000;stroke-width:1.0;"/><polygon fill="#000000" points="1395.07,945.6094,1404.07,949.6094,1400.07,945.6094,1404.07,941.6094,1395.07,945.6094" style="stroke:#000000;stroke-width:1.0;"/><text fill="#000000" font-family="sans-serif" font-size="13" lengthAdjust="spacing" textLength="45" x="1409.5" y="845.4645">miejsce</text><text fill="#000000" font-family="sans-serif" font-size="13" lengthAdjust="spacing" textLength="5" x="1451.2656" y="713.3948">*</text><text fill="#000000" font-family="sans-serif" font-size="13" lengthAdjust="spacing" textLength="22" x="1402.8116" y="940.8313">0..1</text></g><!--link Malzenstwo to Parafia--><g id="link_Malzenstwo_Parafia"><path codeLine="161" d="M1882,683.2294 C1882,767.9794 1882,974.6094 1882,974.6094 C1882,974.6094 1546.21,974.6094 1401.01,974.6094 " fill="none" id="Malzenstwo-to-Parafia" style="stroke:#000000;stroke-width:1.0;"/><polygon fill="#000000" points="1395.01,974.6094,1404.01,978.6094,1400.01,974.6094,1404.01,970.6094,1395.01,974.6094" style="stroke:#000000;stroke-width:1.0;"/><text fill="#000000" font-family="sans-serif" font-size="13" lengthAdjust="spacing" textLength="45" x="1738.2" y="971.1045">miejsce</text><text fill="#000000" font-family="sans-serif" font-size="13" lengthAdjust="spacing" textLength="5" x="1880.4734" y="704.5409">*</text><text fill="#000000" font-family="sans-serif" font-size="13" lengthAdjust="spacing" textLength="22" x="1403.2142" y="972.8654">0..1</text></g><!--link Malzenstwo to Duchowny--><g id="link_Malzenstwo_Duchowny"><path codeLine="162" d="M1838,683.1994 C1838,731.4294 1838,811.6094 1838,811.6094 C1838,811.6094 1540.98,811.6094 1400.72,811.6094 " fill="none" id="Malzenstwo-to-Duchowny" style="stroke:#000000;stroke-width:1.0;"/><polygon fill="#000000" points="1394.72,811.6094,1403.72,815.6094,1399.72,811.6094,1403.72,807.6094,1394.72,811.6094" style="stroke:#000000;stroke-width:1.0;"/><text fill="#000000" font-family="sans-serif" font-size="13" lengthAdjust="spacing" textLength="47" x="1632.57" y="808.1045">&#347;wiadek</text><text fill="#000000" font-family="sans-serif" font-size="13" lengthAdjust="spacing" textLength="5" x="1828.6359" y="704.5056">*</text><text fill="#000000" font-family="sans-serif" font-size="13" lengthAdjust="spacing" textLength="22" x="1402.4136" y="808.3379">0..1</text></g><!--link Sektor to Grob--><g id="link_Sektor_Grob"><path codeLine="185" d="M498,169.2194 C498,191.6994 498,221.1594 498,246.3894 " fill="none" id="Sektor-Grob" style="stroke:#000000;stroke-width:1.0;"/><text fill="#000000" font-family="sans-serif" font-size="13" lengthAdjust="spacing" textLength="7" x="490.3766" y="190.5291">1</text><text fill="#000000" font-family="sans-serif" font-size="13" lengthAdjust="spacing" textLength="5" x="492.6641" y="235.6785">*</text></g><!--reverse link Grob to Pochowany--><g id="link_Grob_Pochowany"><path codeLine="186" d="M466.88,364.7394 C466.88,398.3194 466.88,428.2594 466.88,454.9994 " fill="none" id="Grob-backto-Pochowany" style="stroke:#000000;stroke-width:1.0;"/><polygon fill="#000000" points="466.88,352.7394,462.88,358.7394,466.88,364.7394,470.88,358.7394,466.88,352.7394" style="stroke:#000000;stroke-width:1.0;"/><text fill="#000000" font-family="sans-serif" font-size="13" lengthAdjust="spacing" textLength="7" x="455.4443" y="374.0863">1</text><text fill="#000000" font-family="sans-serif" font-size="13" lengthAdjust="spacing" textLength="5" x="459.7789" y="444.0745">*</text></g><!--link Grob to Osoba--><g id="link_Grob_Osoba"><path codeLine="189" d="M497.75,352.8194 C497.75,388.3594 497.75,428.6094 497.75,428.6094 C497.75,428.6094 765.24,428.6094 904.93,428.6094 " fill="none" id="Grob-to-Osoba" style="stroke:#000000;stroke-width:1.0;"/><polygon fill="#000000" points="910.93,428.6094,901.93,424.6094,905.93,428.6094,901.93,432.6094,910.93,428.6094" style="stroke:#000000;stroke-width:1.0;"/><text fill="#000000" font-family="sans-serif" font-size="13" lengthAdjust="spacing" textLength="117" x="548.45" y="425.1045">dysponent (opiekun)</text><text fill="#000000" font-family="sans-serif" font-size="13" lengthAdjust="spacing" textLength="5" x="492.3977" y="374.1765">*</text><text fill="#000000" font-family="sans-serif" font-size="13" lengthAdjust="spacing" textLength="22" x="881.1037" y="420.8922">0..1</text></g><!--link Pochowany to Osoba--><g id="link_Pochowany_Osoba"><path codeLine="190" d="M528.62,454.9994 C528.62,445.7294 528.62,437.6094 528.62,437.6094 C528.62,437.6094 772.65,437.6094 904.99,437.6094 " fill="none" id="Pochowany-to-Osoba" style="stroke:#000000;stroke-width:1.0;"/><polygon fill="#000000" points="910.99,437.6094,901.99,433.6094,905.99,437.6094,901.99,441.6094,910.99,437.6094" style="stroke:#000000;stroke-width:1.0;"/><text fill="#000000" font-family="sans-serif" font-size="13" lengthAdjust="spacing" textLength="78" x="632.11" y="452.1045">osoba zmar&#322;a</text><text fill="#000000" font-family="sans-serif" font-size="13" lengthAdjust="spacing" textLength="5" x="536.568" y="444.0745">*</text><text fill="#000000" font-family="sans-serif" font-size="13" lengthAdjust="spacing" textLength="7" x="896.0305" y="447.7064">1</text></g><!--link Zgon to Grob--><g id="link_Zgon_Grob"><path codeLine="193" d="M2051.67,611.8394 C2051.67,532.4794 2051.67,348.6094 2051.67,348.6094 C2051.67,348.6094 850.16,348.6094 560.35,348.6094 " fill="none" id="Zgon-Grob" style="stroke:#000000;stroke-width:1.0;stroke-dasharray:7.0,7.0;"/><text fill="#000000" font-family="sans-serif" font-size="13" lengthAdjust="spacing" textLength="64" x="1372.62" y="363.1045">powi&#261;zanie</text><text fill="#000000" font-family="sans-serif" font-size="13" lengthAdjust="spacing" textLength="22" x="2031.8217" y="601.3127">0..1</text><text fill="#000000" font-family="sans-serif" font-size="13" lengthAdjust="spacing" textLength="22" x="567.9142" y="350.3483">0..1</text></g><!--SRC=[fLTVR-9647_FfnZbvIxN7EhrtuEbLYA08ie14H15oKkqs1jOREzQk-jI-nIfHSqtwCkf7wEFTs_5NwIVfBEs0TlW9gKy0DwTdPcT-SrlnfffZqARaPaaFlGyek3lNtw7SQGqnMV2RUeHoHXS4KaU6F4uNPmeb_60c0E-uCAUI-5Jq3AaXHqr9uvOCZw31-Afuex7EDLHG458FHSdS-PGy2d-TLJsO3DfU_Jav1LSAqsMZ796OHdDlFMJ4uABFXQqsVYeuCC9uEU2sEvCYf0xBU492JTpfccs8wH3PRPwuQ5OkjgKKYoBYu_6wFSl_g3mLRFNxKpWdGNNoQVRIMzuC-YsRg4BuzlnfDF_R-e2z87CA9pcuMTm7KYov2O2v3I_P7RXQqLblc0-NuJup8bFBL1QxfQPkYUsPZ_X-bG8hxIXme1ASwwmXm7OsRYIue5vHIjIUCG2oaCVFZJR_UxW77hZRlEkVGxZJc_KcJH7tURaSL_LUp5hklQ25PKHN20LVrr6dSW2XsYgcKzt6xvmg5SH5W5J5cZwiouQJ2Dp-kuKthvDV_9RMF1woEb4uDTPAhTrwVIDaVq1JhziD50-FO_I9DH2OX8MLEcpuv7nbGNZv5S3YrxtM3GaAu4WS5aP0db55aFAIRoiXjHdTA5iiHJAhkmuZDeqBkQWbBDsQC_HRbGqm53RlR72b2igwdIaGoz3Hp79Ea8TTH2xYM9EJ7dNNoANttfJITSc2XO4GYMhS1Oka2oEpzVN5Wp7mmjJmgDX-wuxk8NNhU6eStPaydf4Qg6for0DukcidCEX4bDI3N0bhZNXnXeXzw4KJcpO8QkPocuy4poixX17KbMJyX5gO_nPIFsRYbRi2UuAfPSYqnRL4KX__PHyFeVaa-3a7Denej4LZKRZSIUEzAz3jJt0g8fTbBs90YHkWjgJ5IYs_dY0SMvO76dI3bKS42HJgLnITiIrW75zs5Q1On1RSX-Dhs24VT4sKADBldxICeQ087lfCDtV1D8Gq1j3H0ZQ_SYaeXa4NY1Or9bB7hXaAdheyfMwsTQJ1QxmrXyTh9kYFsNfJPqUNrVVMD0VttMmhBg3IMVG-h5pP46zPpgKise_xAkub5-3_ohoPra0iMMKMWlE8XLyuyn3fp9S43kgGNcNQygnVHLDQYmAkz2F3k9dPp73zDqoSfCLOlfIqfcGZ2I_OR9AU4wlLiJ7rhW5iHcF93a-BTzYUshsHir-Pp2vFPRYJ0dE68o9YnCPvTfCYUNqjEOonZvQRl_wdijAPFRBCYKo735ZNMIoB4050nSOXjX7KgWqauDMqYustPsewu1zuY6vcZfyLcNgflB2QTdBWh8x9EENgQdITadDWFX4nROXVTgQ2ndPy-Tmdqq0T0Evjl1nN8i3XdbwF4ngsqn6W1oGCaA5gmmKCshOfDO2yoQ0deazOji9bzA4Gy7siUO8elt0XMlLfp76gl29J5RHvbPzagoIpnGhosGoMQsVx3W21oi712h9J1TolUK-r9XPiS0tpUebWibdR6SRorVu1hH-YWt48AQWya6E-2mLs8IkTgJ9CrThzpZv0lKdVomPSUZ_UFFvpeAM8O_cwEv8-cYbb27ZCcECgOlpztEJoE5NW4p3fHJJqldGftjy4nEdZfntIqiIy-ZU4NKrUILCG4bvr4bBESXtIWDQVZQ_OQ6T6u_JhTJr8kLlBUnuRrUjcm2MQpNJKSxy1gHEf0B1yHIynWXID-JPEz7k8eUWBTBVhBZ8lYCaApyyT2d_-dDgLDiBB0QFaqnxkfrxqcXi_gL-ckbzKofcoFW7]--></g></svg>