<?xml version="1.0" encoding="us-ascii" standalone="no"?><svg xmlns="http://www.w3.org/2000/svg" xmlns:xlink="http://www.w3.org/1999/xlink" contentStyleType="text/css" height="770px" preserveAspectRatio="none" style="width:1862px;height:770px;background:#FFFFFF;" version="1.1" viewBox="0 0 1862 770" width="1862px" zoomAndPan="magnify"><defs/><g><text fill="#000000" font-family="sans-serif" font-size="14" font-weight="bold" lengthAdjust="spacing" textLength="316" x="766" y="24.5332">Diagram Klas &#8212; System Kancelarii Parafialnej</text><!--class Parafia--><g id="elem_Parafia"><rect codeLine="44" fill="#FFFFFF" height="88.4375" id="Parafia" rx="2.5" ry="2.5" style="stroke:#000000;stroke-width:0.5;" width="128" x="288" y="517.6094"/><text fill="#000000" font-family="sans-serif" font-size="14" lengthAdjust="spacing" textLength="45" x="329.5" y="537.1426">Parafia</text><line style="stroke:#000000;stroke-width:0.5;" x1="289" x2="415" y1="545.2188" y2="545.2188"/><ellipse cx="299" cy="559.5234" fill="none" rx="3" ry="3" style="stroke:#545454;stroke-width:1.0;"/><text fill="#000000" font-family="sans-serif" font-size="14" lengthAdjust="spacing" textLength="63" x="308" y="563.752">nazwa: str</text><ellipse cx="299" cy="577.1328" fill="none" rx="3" ry="3" style="stroke:#545454;stroke-width:1.0;"/><text fill="#000000" font-family="sans-serif" font-size="14" lengthAdjust="spacing" textLength="102" x="308" y="581.3613">miejscowosc: str</text><ellipse cx="299" cy="594.7422" fill="none" rx="3" ry="3" style="stroke:#545454;stroke-width:1.0;"/><text fill="#000000" font-family="sans-serif" font-size="14" lengthAdjust="spacing" textLength="75" x="308" y="598.9707">diecezja: str</text></g><!--class Duchowny--><g id="elem_Duchowny"><rect codeLine="50" fill="#FFFFFF" height="88.4375" id="Duchowny" rx="2.5" ry="2.5" style="stroke:#000000;stroke-width:0.5;" width="139" x="140.5" y="360.6094"/><text fill="#000000" font-family="sans-serif" font-size="14" lengthAdjust="spacing" textLength="65" x="177.5" y="380.1426">Duchowny</text><line style="stroke:#000000;stroke-width:0.5;" x1="141.5" x2="278.5" y1="388.2188" y2="388.2188"/><ellipse cx="151.5" cy="402.5234" fill="none" rx="3" ry="3" style="stroke:#545454;stroke-width:1.0;"/><text fill="#000000" font-family="sans-serif" font-size="14" lengthAdjust="spacing" textLength="113" x="160.5" y="406.752">imie_nazwisko: str</text><ellipse cx="151.5" cy="420.1328" fill="none" rx="3" ry="3" style="stroke:#545454;stroke-width:1.0;"/><text fill="#000000" font-family="sans-serif" font-size="14" lengthAdjust="spacing" textLength="69" x="160.5" y="424.3613">tytul: enum</text><ellipse cx="151.5" cy="437.7422" fill="none" rx="3" ry="3" style="stroke:#545454;stroke-width:1.0;"/><text fill="#000000" font-family="sans-serif" font-size="14" lengthAdjust="spacing" textLength="85" x="160.5" y="441.9707">aktywny: bool</text></g><!--class Wyznanie--><g id="elem_Wyznanie"><rect codeLine="56" fill="#FFFFFF" height="53.2188" id="Wyznanie" rx="2.5" ry="2.5" style="stroke:#000000;stroke-width:0.5;" width="89" x="1266.5" y="378.1094"/><text fill="#000000" font-family="sans-serif" font-size="14" lengthAdjust="spacing" textLength="61" x="1280.5" y="397.6426">Wyznanie</text><line style="stroke:#000000;stroke-width:0.5;" x1="1267.5" x2="1354.5" y1="405.7188" y2="405.7188"/><ellipse cx="1277.5" cy="420.0234" fill="none" rx="3" ry="3" style="stroke:#545454;stroke-width:1.0;"/><text fill="#000000" font-family="sans-serif" font-size="14" lengthAdjust="spacing" textLength="63" x="1286.5" y="424.252">nazwa: str</text></g><!--class Msza--><g id="elem_Msza"><rect codeLine="103" fill="#FFFFFF" height="106.0469" id="Msza" rx="2.5" ry="2.5" style="stroke:#000000;stroke-width:0.5;" width="122" x="131" y="508.6094"/><text fill="#000000" font-family="sans-serif" font-size="14" lengthAdjust="spacing" textLength="32" x="176" y="528.1426">Msza</text><line style="stroke:#000000;stroke-width:0.5;" x1="132" x2="252" y1="536.2188" y2="536.2188"/><ellipse cx="142" cy="550.5234" fill="none" rx="3" ry="3" style="stroke:#545454;stroke-width:1.0;"/><text fill="#000000" font-family="sans-serif" font-size="14" lengthAdjust="spacing" textLength="64" x="151" y="554.752">data: date</text><ellipse cx="142" cy="568.1328" fill="none" rx="3" ry="3" style="stroke:#545454;stroke-width:1.0;"/><text fill="#000000" font-family="sans-serif" font-size="14" lengthAdjust="spacing" textLength="83" x="151" y="572.3613">godzina: time</text><ellipse cx="142" cy="585.7422" fill="none" rx="3" ry="3" style="stroke:#545454;stroke-width:1.0;"/><text fill="#000000" font-family="sans-serif" font-size="14" lengthAdjust="spacing" textLength="43" x="151" y="589.9707">typ: str</text><ellipse cx="142" cy="603.3516" fill="none" rx="3" ry="3" style="stroke:#545454;stroke-width:1.0;"/><text fill="#000000" font-family="sans-serif" font-size="14" lengthAdjust="spacing" textLength="96" x="151" y="607.5801">celebrujacy: str</text></g><!--class Osoba--><g id="elem_Osoba"><rect codeLine="67" fill="#FFFFFF" height="123.6563" id="Osoba" rx="2.5" ry="2.5" style="stroke:#000000;stroke-width:0.5;" width="160" x="983" y="176.6094"/><text fill="#000000" font-family="sans-serif" font-size="14" lengthAdjust="spacing" textLength="42" x="1042" y="196.1426">Osoba</text><line style="stroke:#000000;stroke-width:0.5;" x1="984" x2="1142" y1="204.2188" y2="204.2188"/><ellipse cx="994" cy="218.5234" fill="none" rx="3" ry="3" style="stroke:#545454;stroke-width:1.0;"/><text fill="#000000" font-family="sans-serif" font-size="14" lengthAdjust="spacing" textLength="49" x="1003" y="222.752">imie: str</text><ellipse cx="994" cy="236.1328" fill="none" rx="3" ry="3" style="stroke:#545454;stroke-width:1.0;"/><text fill="#000000" font-family="sans-serif" font-size="14" lengthAdjust="spacing" textLength="80" x="1003" y="240.3613">nazwisko: str</text><ellipse cx="994" cy="253.7422" fill="none" rx="3" ry="3" style="stroke:#545454;stroke-width:1.0;"/><text fill="#000000" font-family="sans-serif" font-size="14" lengthAdjust="spacing" textLength="134" x="1003" y="257.9707">data_urodzenia: date</text><ellipse cx="994" cy="271.3516" fill="none" rx="3" ry="3" style="stroke:#545454;stroke-width:1.0;"/><text fill="#000000" font-family="sans-serif" font-size="14" lengthAdjust="spacing" textLength="110" x="1003" y="275.5801">data_zgonu: date</text><ellipse cx="994" cy="288.9609" fill="none" rx="3" ry="3" style="stroke:#545454;stroke-width:1.0;"/><text fill="#000000" font-family="sans-serif" font-size="14" lengthAdjust="spacing" textLength="60" x="1003" y="293.1895">adres: str</text></g><!--class Rodzina--><g id="elem_Rodzina"><rect codeLine="75" fill="#FFFFFF" height="70.8281" id="Rodzina" rx="2.5" ry="2.5" style="stroke:#000000;stroke-width:0.5;" width="89" x="123.5" y="45.6094"/><text fill="#000000" font-family="sans-serif" font-size="14" lengthAdjust="spacing" textLength="51" x="142.5" y="65.1426">Rodzina</text><line style="stroke:#000000;stroke-width:0.5;" x1="124.5" x2="211.5" y1="73.2188" y2="73.2188"/><ellipse cx="134.5" cy="87.5234" fill="none" rx="3" ry="3" style="stroke:#545454;stroke-width:1.0;"/><text fill="#000000" font-family="sans-serif" font-size="14" lengthAdjust="spacing" textLength="63" x="143.5" y="91.752">nazwa: str</text><ellipse cx="134.5" cy="105.1328" fill="none" rx="3" ry="3" style="stroke:#545454;stroke-width:1.0;"/><text fill="#000000" font-family="sans-serif" font-size="14" lengthAdjust="spacing" textLength="60" x="143.5" y="109.3613">adres: str</text></g><!--class CzlonkostwoRodziny--><g id="elem_CzlonkostwoRodziny"><rect codeLine="80" fill="#FFFFFF" height="70.8281" id="CzlonkostwoRodziny" rx="2.5" ry="2.5" style="stroke:#000000;stroke-width:0.5;" width="279" x="395.5" y="369.1094"/><text fill="#000000" font-family="sans-serif" font-size="14" lengthAdjust="spacing" textLength="128" x="471" y="388.6426">CzlonkostwoRodziny</text><line style="stroke:#000000;stroke-width:0.5;" x1="396.5" x2="673.5" y1="396.7188" y2="396.7188"/><ellipse cx="406.5" cy="411.0234" fill="none" rx="3" ry="3" style="stroke:#545454;stroke-width:1.0;"/><text fill="#000000" font-family="sans-serif" font-size="14" lengthAdjust="spacing" textLength="215" x="415.5" y="415.252">rola: enum {M&#261;&#380;, &#379;ona, Dziecko...}</text><ellipse cx="406.5" cy="428.6328" fill="none" rx="3" ry="3" style="stroke:#545454;stroke-width:1.0;"/><text fill="#000000" font-family="sans-serif" font-size="14" lengthAdjust="spacing" textLength="253" x="415.5" y="432.8613">status: enum {Mieszka, Wyprowadzi&#322; si&#281;}</text></g><!--class WizytaDuszpasterska--><g id="elem_WizytaDuszpasterska"><rect codeLine="85" fill="#FFFFFF" height="88.4375" id="WizytaDuszpasterska" rx="2.5" ry="2.5" style="stroke:#000000;stroke-width:0.5;" width="140" x="7" y="194.6094"/><text fill="#000000" font-family="sans-serif" font-size="14" lengthAdjust="spacing" textLength="134" x="10" y="214.1426">WizytaDuszpasterska</text><line style="stroke:#000000;stroke-width:0.5;" x1="8" x2="146" y1="222.2188" y2="222.2188"/><ellipse cx="18" cy="236.5234" fill="none" rx="3" ry="3" style="stroke:#545454;stroke-width:1.0;"/><text fill="#000000" font-family="sans-serif" font-size="14" lengthAdjust="spacing" textLength="43" x="27" y="240.752">rok: int</text><ellipse cx="18" cy="254.1328" fill="none" rx="3" ry="3" style="stroke:#545454;stroke-width:1.0;"/><text fill="#000000" font-family="sans-serif" font-size="14" lengthAdjust="spacing" textLength="81" x="27" y="258.3613">status: enum</text><ellipse cx="18" cy="271.7422" fill="none" rx="3" ry="3" style="stroke:#545454;stroke-width:1.0;"/><text fill="#000000" font-family="sans-serif" font-size="14" lengthAdjust="spacing" textLength="60" x="27" y="275.9707">ofiara: str</text></g><!--class Intencja--><g id="elem_Intencja"><rect codeLine="110" fill="#FFFFFF" height="88.4375" id="Intencja" rx="2.5" ry="2.5" style="stroke:#000000;stroke-width:0.5;" width="238" x="73" y="674.6094"/><text fill="#000000" font-family="sans-serif" font-size="14" lengthAdjust="spacing" textLength="49" x="167.5" y="694.1426">Intencja</text><line style="stroke:#000000;stroke-width:0.5;" x1="74" x2="310" y1="702.2188" y2="702.2188"/><ellipse cx="84" cy="716.5234" fill="none" rx="3" ry="3" style="stroke:#545454;stroke-width:1.0;"/><text fill="#000000" font-family="sans-serif" font-size="14" lengthAdjust="spacing" textLength="61" x="93" y="720.752">tresc: text</text><ellipse cx="84" cy="734.1328" fill="none" rx="3" ry="3" style="stroke:#545454;stroke-width:1.0;"/><text fill="#000000" font-family="sans-serif" font-size="14" lengthAdjust="spacing" textLength="60" x="93" y="738.3613">ofiara: str</text><ellipse cx="84" cy="751.7422" fill="none" rx="3" ry="3" style="stroke:#545454;stroke-width:1.0;"/><text fill="#000000" font-family="sans-serif" font-size="14" lengthAdjust="spacing" textLength="212" x="93" y="755.9707">typ: enum {Zwyk&#322;a, Gregoria&#324;ska}</text></g><!--class Chrzest--><g id="elem_Chrzest"><rect codeLine="123" fill="#FFFFFF" height="88.4375" id="Chrzest" rx="2.5" ry="2.5" style="stroke:#000000;stroke-width:0.5;" width="136" x="710" y="360.6094"/><text fill="#000000" font-family="sans-serif" font-size="14" lengthAdjust="spacing" textLength="48" x="754" y="380.1426">Chrzest</text><line style="stroke:#000000;stroke-width:0.5;" x1="711" x2="845" y1="388.2188" y2="388.2188"/><ellipse cx="721" cy="402.5234" fill="none" rx="3" ry="3" style="stroke:#545454;stroke-width:1.0;"/><text fill="#000000" font-family="sans-serif" font-size="14" lengthAdjust="spacing" textLength="64" x="730" y="406.752">akt_nr: str</text><ellipse cx="721" cy="420.1328" fill="none" rx="3" ry="3" style="stroke:#545454;stroke-width:1.0;"/><text fill="#000000" font-family="sans-serif" font-size="14" lengthAdjust="spacing" textLength="43" x="730" y="424.3613">rok: int</text><ellipse cx="721" cy="437.7422" fill="none" rx="3" ry="3" style="stroke:#545454;stroke-width:1.0;"/><text fill="#000000" font-family="sans-serif" font-size="14" lengthAdjust="spacing" textLength="110" x="730" y="441.9707">data_chrztu: date</text></g><!--class Bierzmowanie--><g id="elem_Bierzmowanie"><rect codeLine="129" fill="#FFFFFF" height="70.8281" id="Bierzmowanie" rx="2.5" ry="2.5" style="stroke:#000000;stroke-width:0.5;" width="168" x="1391" y="369.1094"/><text fill="#000000" font-family="sans-serif" font-size="14" lengthAdjust="spacing" textLength="86" x="1432" y="388.6426">Bierzmowanie</text><line style="stroke:#000000;stroke-width:0.5;" x1="1392" x2="1558" y1="396.7188" y2="396.7188"/><ellipse cx="1402" cy="411.0234" fill="none" rx="3" ry="3" style="stroke:#545454;stroke-width:1.0;"/><text fill="#000000" font-family="sans-serif" font-size="14" lengthAdjust="spacing" textLength="64" x="1411" y="415.252">akt_nr: str</text><ellipse cx="1402" cy="428.6328" fill="none" rx="3" ry="3" style="stroke:#545454;stroke-width:1.0;"/><text fill="#000000" font-family="sans-serif" font-size="14" lengthAdjust="spacing" textLength="142" x="1411" y="432.8613">imie_bierzmowania: str</text></g><!--class Malzenstwo--><g id="elem_Malzenstwo"><rect codeLine="134" fill="#FFFFFF" height="70.8281" id="Malzenstwo" rx="2.5" ry="2.5" style="stroke:#000000;stroke-width:0.5;" width="132" x="307" y="45.6094"/><text fill="#000000" font-family="sans-serif" font-size="14" lengthAdjust="spacing" textLength="72" x="337" y="65.1426">Malzenstwo</text><line style="stroke:#000000;stroke-width:0.5;" x1="308" x2="438" y1="73.2188" y2="73.2188"/><ellipse cx="318" cy="87.5234" fill="none" rx="3" ry="3" style="stroke:#545454;stroke-width:1.0;"/><text fill="#000000" font-family="sans-serif" font-size="14" lengthAdjust="spacing" textLength="64" x="327" y="91.752">akt_nr: str</text><ellipse cx="318" cy="105.1328" fill="none" rx="3" ry="3" style="stroke:#545454;stroke-width:1.0;"/><text fill="#000000" font-family="sans-serif" font-size="14" lengthAdjust="spacing" textLength="106" x="327" y="109.3613">data_slubu: date</text></g><!--class Zgon--><g id="elem_Zgon"><rect codeLine="139" fill="#FFFFFF" height="70.8281" id="Zgon" rx="2.5" ry="2.5" style="stroke:#000000;stroke-width:0.5;" width="136" x="1719" y="369.1094"/><text fill="#000000" font-family="sans-serif" font-size="14" lengthAdjust="spacing" textLength="32" x="1771" y="388.6426">Zgon</text><line style="stroke:#000000;stroke-width:0.5;" x1="1720" x2="1854" y1="396.7188" y2="396.7188"/><ellipse cx="1730" cy="411.0234" fill="none" rx="3" ry="3" style="stroke:#545454;stroke-width:1.0;"/><text fill="#000000" font-family="sans-serif" font-size="14" lengthAdjust="spacing" textLength="64" x="1739" y="415.252">akt_nr: str</text><ellipse cx="1730" cy="428.6328" fill="none" rx="3" ry="3" style="stroke:#545454;stroke-width:1.0;"/><text fill="#000000" font-family="sans-serif" font-size="14" lengthAdjust="spacing" textLength="110" x="1739" y="432.8613">data_zgonu: date</text></g><!--class NamaszczenieChorych--><g id="elem_NamaszczenieChorych"><rect codeLine="144" fill="#FFFFFF" height="70.8281" id="NamaszczenieChorych" rx="2.5" ry="2.5" style="stroke:#000000;stroke-width:0.5;" width="208" x="881" y="369.1094"/><text fill="#000000" font-family="sans-serif" font-size="14" lengthAdjust="spacing" textLength="142" x="914" y="388.6426">NamaszczenieChorych</text><line style="stroke:#000000;stroke-width:0.5;" x1="882" x2="1088" y1="396.7188" y2="396.7188"/><ellipse cx="892" cy="411.0234" fill="none" rx="3" ry="3" style="stroke:#545454;stroke-width:1.0;"/><text fill="#000000" font-family="sans-serif" font-size="14" lengthAdjust="spacing" textLength="64" x="901" y="415.252">data: date</text><ellipse cx="892" cy="428.6328" fill="none" rx="3" ry="3" style="stroke:#545454;stroke-width:1.0;"/><text fill="#000000" font-family="sans-serif" font-size="14" lengthAdjust="spacing" textLength="182" x="901" y="432.8613">miejsce: enum {Dom, Szpital}</text></g><!--class Sektor--><g id="elem_Sektor"><rect codeLine="169" fill="#FFFFFF" height="70.8281" id="Sektor" rx="2.5" ry="2.5" style="stroke:#000000;stroke-width:0.5;" width="89" x="1594.5" y="369.1094"/><text fill="#000000" font-family="sans-serif" font-size="14" lengthAdjust="spacing" textLength="41" x="1618.5" y="388.6426">Sektor</text><line style="stroke:#000000;stroke-width:0.5;" x1="1595.5" x2="1682.5" y1="396.7188" y2="396.7188"/><ellipse cx="1605.5" cy="411.0234" fill="none" rx="3" ry="3" style="stroke:#545454;stroke-width:1.0;"/><text fill="#000000" font-family="sans-serif" font-size="14" lengthAdjust="spacing" textLength="63" x="1614.5" y="415.252">nazwa: str</text><ellipse cx="1605.5" cy="428.6328" fill="none" rx="3" ry="3" style="stroke:#545454;stroke-width:1.0;"/><text fill="#000000" font-family="sans-serif" font-size="14" lengthAdjust="spacing" textLength="56" x="1614.5" y="432.8613">opis: text</text></g><!--class Grob--><g id="elem_Grob"><rect codeLine="174" fill="#FFFFFF" height="106.0469" id="Grob" rx="2.5" ry="2.5" style="stroke:#000000;stroke-width:0.5;" width="124" x="1386" y="508.6094"/><text fill="#000000" font-family="sans-serif" font-size="14" lengthAdjust="spacing" textLength="32" x="1432" y="528.1426">Grob</text><line style="stroke:#000000;stroke-width:0.5;" x1="1387" x2="1509" y1="536.2188" y2="536.2188"/><ellipse cx="1397" cy="550.5234" fill="none" rx="3" ry="3" style="stroke:#545454;stroke-width:1.0;"/><text fill="#000000" font-family="sans-serif" font-size="14" lengthAdjust="spacing" textLength="64" x="1406" y="554.752">numer: str</text><ellipse cx="1397" cy="568.1328" fill="none" rx="3" ry="3" style="stroke:#545454;stroke-width:1.0;"/><text fill="#000000" font-family="sans-serif" font-size="14" lengthAdjust="spacing" textLength="51" x="1406" y="572.3613">rzad: str</text><ellipse cx="1397" cy="585.7422" fill="none" rx="3" ry="3" style="stroke:#545454;stroke-width:1.0;"/><text fill="#000000" font-family="sans-serif" font-size="14" lengthAdjust="spacing" textLength="62" x="1406" y="589.9707">typ: enum</text><ellipse cx="1397" cy="603.3516" fill="none" rx="3" ry="3" style="stroke:#545454;stroke-width:1.0;"/><text fill="#000000" font-family="sans-serif" font-size="14" lengthAdjust="spacing" textLength="98" x="1406" y="607.5801">wazny_do: date</text></g><!--class Pochowany--><g id="elem_Pochowany"><rect codeLine="181" fill="#FFFFFF" height="53.2188" id="Pochowany" rx="2.5" ry="2.5" style="stroke:#000000;stroke-width:0.5;" width="173" x="1208.5" y="692.1094"/><text fill="#000000" font-family="sans-serif" font-size="14" lengthAdjust="spacing" textLength="72" x="1259" y="711.6426">Pochowany</text><line style="stroke:#000000;stroke-width:0.5;" x1="1209.5" x2="1380.5" y1="719.7188" y2="719.7188"/><ellipse cx="1219.5" cy="734.0234" fill="none" rx="3" ry="3" style="stroke:#545454;stroke-width:1.0;"/><text fill="#000000" font-family="sans-serif" font-size="14" lengthAdjust="spacing" textLength="147" x="1228.5" y="738.252">data_pochowania: date</text></g><!--link Duchowny to Parafia--><g id="link_Duchowny_Parafia"><path codeLine="60" d="M279.79,446.6094 C290.19,446.6094 297.5,446.6094 297.5,446.6094 C297.5,446.6094 297.5,479.0494 297.5,511.4794 " fill="none" id="Duchowny-to-Parafia" style="stroke:#000000;stroke-width:1.0;"/><polygon fill="#000000" points="297.5,517.4794,301.5,508.4794,297.5,512.4794,293.5,508.4794,297.5,517.4794" style="stroke:#000000;stroke-width:1.0;"/><text fill="#000000" font-family="sans-serif" font-size="13" lengthAdjust="spacing" textLength="68" x="228.5" y="469.6845">pos&#322;uguje w</text><text fill="#000000" font-family="sans-serif" font-size="13" lengthAdjust="spacing" textLength="5" x="287.6967" y="447.8185">*</text><text fill="#000000" font-family="sans-serif" font-size="13" lengthAdjust="spacing" textLength="22" x="265.0609" y="506.6594">0..1</text></g><!--link Duchowny to Msza--><g id="link_Duchowny_Msza"><path codeLine="61" d="M196.75,448.7594 C196.75,467.3494 196.75,489.1494 196.75,508.5994 " fill="none" id="Duchowny-Msza" style="stroke:#000000;stroke-width:1.0;"/><text fill="#000000" font-family="sans-serif" font-size="13" lengthAdjust="spacing" textLength="73" x="197.75" y="493.1745">koncelebruje</text><text fill="#000000" font-family="sans-serif" font-size="13" lengthAdjust="spacing" textLength="5" x="189.2398" y="470.5591">*</text><text fill="#000000" font-family="sans-serif" font-size="13" lengthAdjust="spacing" textLength="5" x="192.0523" y="497.9167">*</text></g><!--reverse link Rodzina to CzlonkostwoRodziny--><g id="link_Rodzina_CzlonkostwoRodziny"><path codeLine="92" d="M179.75,128.9294 C179.75,144.2194 179.75,146.6094 179.75,146.6094 C179.75,146.6094 406.38,146.6094 406.38,146.6094 C406.38,146.6094 406.38,298.2294 406.38,369.0094 " fill="none" id="Rodzina-backto-CzlonkostwoRodziny" style="stroke:#000000;stroke-width:1.0;"/><polygon fill="#000000" points="179.75,116.9294,175.75,122.9294,179.75,128.9294,183.75,122.9294,179.75,116.9294" style="stroke:#000000;stroke-width:1.0;"/><text fill="#000000" font-family="sans-serif" font-size="13" lengthAdjust="spacing" textLength="7" x="174.168" y="138.001">1</text><text fill="#000000" font-family="sans-serif" font-size="13" lengthAdjust="spacing" textLength="5" x="382.1218" y="360.1392">*</text></g><!--reverse link Osoba to CzlonkostwoRodziny--><g id="link_Osoba_CzlonkostwoRodziny"><path codeLine="93" d="M970.78,291.6094 C828.03,291.6094 556.75,291.6094 556.75,291.6094 C556.75,291.6094 556.75,335.7494 556.75,368.8594 " fill="none" id="Osoba-backto-CzlonkostwoRodziny" style="stroke:#000000;stroke-width:1.0;"/><polygon fill="#000000" points="982.78,291.6094,976.78,287.6094,970.78,291.6094,976.78,295.6094,982.78,291.6094" style="stroke:#000000;stroke-width:1.0;"/><text fill="#000000" font-family="sans-serif" font-size="13" lengthAdjust="spacing" textLength="7" x="968.0621" y="293.285">1</text><text fill="#000000" font-family="sans-serif" font-size="13" lengthAdjust="spacing" textLength="5" x="555.2992" y="358.3363">*</text></g><!--link Rodzina to WizytaDuszpasterska--><g id="link_Rodzina_WizytaDuszpasterska"><path codeLine="94" d="M135.25,116.8494 C135.25,139.8994 135.25,170.0494 135.25,194.5794 " fill="none" id="Rodzina-WizytaDuszpasterska" style="stroke:#000000;stroke-width:1.0;"/><text fill="#000000" font-family="sans-serif" font-size="13" lengthAdjust="spacing" textLength="7" x="122.0195" y="137.9073">1</text><text fill="#000000" font-family="sans-serif" font-size="13" lengthAdjust="spacing" textLength="5" x="139.1352" y="183.7754">*</text></g><!--link WizytaDuszpasterska to Duchowny--><g id="link_WizytaDuszpasterska_Duchowny"><path codeLine="95" d="M135.75,282.6594 C135.75,331.8394 135.75,404.6094 135.75,404.6094 C135.75,404.6094 131.39,404.6094 134.17,404.6094 " fill="none" id="WizytaDuszpasterska-to-Duchowny" style="stroke:#000000;stroke-width:1.0;"/><polygon fill="#000000" points="140.17,404.6094,131.17,400.6094,135.17,404.6094,131.17,408.6094,140.17,404.6094" style="stroke:#000000;stroke-width:1.0;"/><text fill="#000000" font-family="sans-serif" font-size="13" lengthAdjust="spacing" textLength="48" x="86.75" y="342.3445">kol&#281;duje</text><text fill="#000000" font-family="sans-serif" font-size="13" lengthAdjust="spacing" textLength="5" x="139.7148" y="304.4431">*</text><text fill="#000000" font-family="sans-serif" font-size="13" lengthAdjust="spacing" textLength="22" x="110.4659" y="401.3379">0..1</text></g><!--link Osoba to Wyznanie--><g id="link_Osoba_Wyznanie"><path codeLine="96" d="M1121.4,300.8894 C1121.4,347.9994 1121.4,404.6094 1121.4,404.6094 C1121.4,404.6094 1204,404.6094 1260.07,404.6094 " fill="none" id="Osoba-to-Wyznanie" style="stroke:#000000;stroke-width:1.0;"/><polygon fill="#000000" points="1266.07,404.6094,1257.07,400.6094,1261.07,404.6094,1257.07,408.6094,1266.07,404.6094" style="stroke:#000000;stroke-width:1.0;"/><text fill="#000000" font-family="sans-serif" font-size="13" lengthAdjust="spacing" textLength="5" x="1122.1647" y="321.668">*</text><text fill="#000000" font-family="sans-serif" font-size="13" lengthAdjust="spacing" textLength="22" x="1236.5544" y="401.0384">0..1</text></g><!--reverse link Msza to Intencja--><g id="link_Msza_Intencja"><path codeLine="116" d="M192,626.7594 C192,646.1594 192,655.8594 192,674.3894 " fill="none" id="Msza-backto-Intencja" style="stroke:#000000;stroke-width:1.0;"/><polygon fill="#000000" points="192,614.7594,188,620.7594,192,626.7594,196,620.7594,192,614.7594" style="stroke:#000000;stroke-width:1.0;"/><text fill="#000000" font-family="sans-serif" font-size="13" lengthAdjust="spacing" textLength="44" x="193" y="641.0745">zawiera</text><text fill="#000000" font-family="sans-serif" font-size="13" lengthAdjust="spacing" textLength="7" x="184.5516" y="636.1089">1</text><text fill="#000000" font-family="sans-serif" font-size="13" lengthAdjust="spacing" textLength="5" x="186.6172" y="663.8817">*</text></g><!--link Osoba to Chrzest--><g id="link_Osoba_Chrzest"><path codeLine="150" d="M1018.33,300.6194 C1018.33,332.8594 1018.33,365.6094 1018.33,365.6094 C1018.33,365.6094 917.28,365.6094 846.23,365.6094 " fill="none" id="Osoba-Chrzest" style="stroke:#000000;stroke-width:1.0;"/><text fill="#000000" font-family="sans-serif" font-size="13" lengthAdjust="spacing" textLength="67" x="896.77" y="362.1045">ochrzczony</text><text fill="#000000" font-family="sans-serif" font-size="13" lengthAdjust="spacing" textLength="7" x="1006.0614" y="321.8099">1</text><text fill="#000000" font-family="sans-serif" font-size="13" lengthAdjust="spacing" textLength="22" x="853.4668" y="358.2329">0..1</text></g><!--link Osoba to Bierzmowanie--><g id="link_Osoba_Bierzmowanie"><path codeLine="151" d="M1132.2,300.9694 C1132.2,336.3494 1132.2,373.6094 1132.2,373.6094 C1132.2,373.6094 1289.2,373.6094 1390.7,373.6094 " fill="none" id="Osoba-Bierzmowanie" style="stroke:#000000;stroke-width:1.0;"/><text fill="#000000" font-family="sans-serif" font-size="13" lengthAdjust="spacing" textLength="76" x="1148.13" y="370.1045">bierzmowany</text><text fill="#000000" font-family="sans-serif" font-size="13" lengthAdjust="spacing" textLength="7" x="1131.9753" y="321.7562">1</text><text fill="#000000" font-family="sans-serif" font-size="13" lengthAdjust="spacing" textLength="22" x="1361.1058" y="368.0175">0..1</text></g><!--link Osoba to NamaszczenieChorych--><g id="link_Osoba_NamaszczenieChorych"><path codeLine="152" d="M1053.67,300.8894 C1053.67,323.8894 1053.67,349.1594 1053.67,368.9994 " fill="none" id="Osoba-NamaszczenieChorych" style="stroke:#000000;stroke-width:1.0;"/><text fill="#000000" font-family="sans-serif" font-size="13" lengthAdjust="spacing" textLength="7" x="1045.3469" y="321.668">1</text><text fill="#000000" font-family="sans-serif" font-size="13" lengthAdjust="spacing" textLength="20" x="1044.854" y="358.2312">0..*</text></g><!--link Osoba to Zgon--><g id="link_Osoba_Zgon"><path codeLine="153" d="M1143.25,238.6094 C1331.75,238.6094 1787,238.6094 1787,238.6094 C1787,238.6094 1787,320.2194 1787,368.9994 " fill="none" id="Osoba-Zgon" style="stroke:#000000;stroke-width:1.0;"/><text fill="#000000" font-family="sans-serif" font-size="13" lengthAdjust="spacing" textLength="39" x="1490.32" y="235.1045">zmar&#322;y</text><text fill="#000000" font-family="sans-serif" font-size="13" lengthAdjust="spacing" textLength="7" x="1150.9707" y="235.399">1</text><text fill="#000000" font-family="sans-serif" font-size="13" lengthAdjust="spacing" textLength="22" x="1762.9031" y="358.2312">0..1</text></g><!--link Malzenstwo to Osoba--><g id="link_Malzenstwo_Osoba"><path codeLine="156" d="M428.12,116.8994 C428.12,146.1194 428.12,182.6094 428.12,182.6094 C428.12,182.6094 806.24,182.6094 976.91,182.6094 " fill="none" id="Malzenstwo-to-Osoba" style="stroke:#000000;stroke-width:1.0;"/><polygon fill="#000000" points="982.91,182.6094,973.91,178.6094,977.91,182.6094,973.91,186.6094,982.91,182.6094" style="stroke:#000000;stroke-width:1.0;"/><text fill="#000000" font-family="sans-serif" font-size="13" lengthAdjust="spacing" textLength="25" x="646.66" y="179.1045">m&#261;&#380;</text><text fill="#000000" font-family="sans-serif" font-size="13" lengthAdjust="spacing" textLength="5" x="432.1641" y="137.9659">*</text><text fill="#000000" font-family="sans-serif" font-size="13" lengthAdjust="spacing" textLength="7" x="967.9428" y="174.0376">1</text></g><!--link Malzenstwo to Osoba--><g id="link_Malzenstwo_Osoba"><path codeLine="157" d="M417.25,116.9094 C417.25,148.1794 417.25,188.6094 417.25,188.6094 C417.25,188.6094 803.91,188.6094 976.85,188.6094 " fill="none" id="Malzenstwo-to-Osoba-1" style="stroke:#000000;stroke-width:1.0;"/><polygon fill="#000000" points="982.85,188.6094,973.85,184.6094,977.85,188.6094,973.85,192.6094,982.85,188.6094" style="stroke:#000000;stroke-width:1.0;"/><text fill="#000000" font-family="sans-serif" font-size="13" lengthAdjust="spacing" textLength="28" x="635.2" y="203.1045">&#380;ona</text><text fill="#000000" font-family="sans-serif" font-size="13" lengthAdjust="spacing" textLength="5" x="419.4258" y="137.9776">*</text><text fill="#000000" font-family="sans-serif" font-size="13" lengthAdjust="spacing" textLength="7" x="967.8771" y="198.1345">1</text></g><!--link Chrzest to Parafia--><g id="link_Chrzest_Parafia"><path codeLine="160" d="M709.72,443.6094 C602.26,443.6094 405.75,443.6094 405.75,443.6094 C405.75,443.6094 405.75,477.8494 405.75,511.3394 " fill="none" id="Chrzest-to-Parafia" style="stroke:#000000;stroke-width:1.0;"/><polygon fill="#000000" points="405.75,517.3394,409.75,508.3394,405.75,512.3394,401.75,508.3394,405.75,517.3394" style="stroke:#000000;stroke-width:1.0;"/><text fill="#000000" font-family="sans-serif" font-size="13" lengthAdjust="spacing" textLength="45" x="474.87" y="458.1045">miejsce</text><text fill="#000000" font-family="sans-serif" font-size="13" lengthAdjust="spacing" textLength="5" x="696.9784" y="444.4904">*</text><text fill="#000000" font-family="sans-serif" font-size="13" lengthAdjust="spacing" textLength="22" x="390.2961" y="506.8241">0..1</text></g><!--link Malzenstwo to Parafia--><g id="link_Malzenstwo_Parafia"><path codeLine="161" d="M366,116.8294 C366,203.1794 366,417.0294 366,511.4394 " fill="none" id="Malzenstwo-to-Parafia" style="stroke:#000000;stroke-width:1.0;"/><polygon fill="#000000" points="366,517.4394,370,508.4394,366,512.4394,362,508.4394,366,517.4394" style="stroke:#000000;stroke-width:1.0;"/><text fill="#000000" font-family="sans-serif" font-size="13" lengthAdjust="spacing" textLength="45" x="320" y="313.6345">miejsce</text><text fill="#000000" font-family="sans-serif" font-size="13" lengthAdjust="spacing" textLength="5" x="359.3672" y="137.8839">*</text><text fill="#000000" font-family="sans-serif" font-size="13" lengthAdjust="spacing" textLength="22" x="344.4781" y="506.6131">0..1</text></g><!--link Malzenstwo to Duchowny--><g id="link_Malzenstwo_Duchowny"><path codeLine="162" d="M336.5,116.8494 C336.5,193.2594 336.5,365.6094 336.5,365.6094 C336.5,365.6094 314.94,365.6094 285.54,365.6094 " fill="none" id="Malzenstwo-to-Duchowny" style="stroke:#000000;stroke-width:1.0;"/><polygon fill="#000000" points="279.54,365.6094,288.54,369.6094,284.54,365.6094,288.54,361.6094,279.54,365.6094" style="stroke:#000000;stroke-width:1.0;"/><text fill="#000000" font-family="sans-serif" font-size="13" lengthAdjust="spacing" textLength="47" x="288.5" y="266.2045">&#347;wiadek</text><text fill="#000000" font-family="sans-serif" font-size="13" lengthAdjust="spacing" textLength="5" x="324.7969" y="137.9073">*</text><text fill="#000000" font-family="sans-serif" font-size="13" lengthAdjust="spacing" textLength="22" x="287.4682" y="358.4737">0..1</text></g><!--link Sektor to Grob--><g id="link_Sektor_Grob"><path codeLine="185" d="M1639,440.2994 C1639,481.7794 1639,544.6094 1639,544.6094 C1639,544.6094 1565.78,544.6094 1510.01,544.6094 " fill="none" id="Sektor-Grob" style="stroke:#000000;stroke-width:1.0;"/><text fill="#000000" font-family="sans-serif" font-size="13" lengthAdjust="spacing" textLength="7" x="1631.3984" y="461.3487">1</text><text fill="#000000" font-family="sans-serif" font-size="13" lengthAdjust="spacing" textLength="5" x="1517.8722" y="539.0762">*</text></g><!--reverse link Grob to Pochowany--><g id="link_Grob_Pochowany"><path codeLine="186" d="M1373.75,610.6094 C1363.69,610.6094 1368.5,610.6094 1368.5,610.6094 C1368.5,610.6094 1368.5,659.9294 1368.5,691.9094 " fill="none" id="Grob-backto-Pochowany" style="stroke:#000000;stroke-width:1.0;"/><polygon fill="#000000" points="1385.75,610.6094,1379.75,606.6094,1373.75,610.6094,1379.75,614.6094,1385.75,610.6094" style="stroke:#000000;stroke-width:1.0;"/><text fill="#000000" font-family="sans-serif" font-size="13" lengthAdjust="spacing" textLength="7" x="1371.1477" y="612.8627">1</text><text fill="#000000" font-family="sans-serif" font-size="13" lengthAdjust="spacing" textLength="5" x="1379.9188" y="681.3955">*</text></g><!--link Grob to Osoba--><g id="link_Grob_Osoba"><path codeLine="189" d="M1385.72,513.6094 C1288.23,513.6094 1110.6,513.6094 1110.6,513.6094 C1110.6,513.6094 1110.6,387.7794 1110.6,306.6694 " fill="none" id="Grob-to-Osoba" style="stroke:#000000;stroke-width:1.0;"/><polygon fill="#000000" points="1110.6,300.6694,1106.6,309.6694,1110.6,305.6694,1114.6,309.6694,1110.6,300.6694" style="stroke:#000000;stroke-width:1.0;"/><text fill="#000000" font-family="sans-serif" font-size="13" lengthAdjust="spacing" textLength="117" x="1023.69" y="510.1045">dysponent (opiekun)</text><text fill="#000000" font-family="sans-serif" font-size="13" lengthAdjust="spacing" textLength="5" x="1372.8249" y="504.2981">*</text><text fill="#000000" font-family="sans-serif" font-size="13" lengthAdjust="spacing" textLength="22" x="1092.6031" y="321.8653">0..1</text></g><!--link Pochowany to Osoba--><g id="link_Pochowany_Osoba"><path codeLine="190" d="M1208.25,718.6094 C1156.11,718.6094 1099.8,718.6094 1099.8,718.6094 C1099.8,718.6094 1099.8,436.7494 1099.8,306.8694 " fill="none" id="Pochowany-to-Osoba" style="stroke:#000000;stroke-width:1.0;"/><polygon fill="#000000" points="1099.8,300.8694,1095.8,309.8694,1099.8,305.8694,1103.8,309.8694,1099.8,300.8694" style="stroke:#000000;stroke-width:1.0;"/><text fill="#000000" font-family="sans-serif" font-size="13" lengthAdjust="spacing" textLength="78" x="1020.8" y="560.4545">osoba zmar&#322;a</text><text fill="#000000" font-family="sans-serif" font-size="13" lengthAdjust="spacing" textLength="5" x="1195.5801" y="715.4227">*</text><text fill="#000000" font-family="sans-serif" font-size="13" lengthAdjust="spacing" textLength="7" x="1107.3687" y="322.2553">1</text></g><!--link Zgon to Grob--><g id="link_Zgon_Grob"><path codeLine="193" d="M1787,440.4494 C1787,491.6394 1787,579.6094 1787,579.6094 C1787,579.6094 1608.04,579.6094 1510.18,579.6094 " fill="none" id="Zgon-Grob" style="stroke:#000000;stroke-width:1.0;stroke-dasharray:7.0,7.0;"/><text fill="#000000" font-family="sans-serif" font-size="13" lengthAdjust="spacing" textLength="64" x="1653.17" y="576.1045">powi&#261;zanie</text><text fill="#000000" font-family="sans-serif" font-size="13" lengthAdjust="spacing" textLength="22" x="1763.1094" y="461.5245">0..1</text><text fill="#000000" font-family="sans-serif" font-size="13" lengthAdjust="spacing" textLength="22" x="1518.1841" y="578.2149">0..1</text></g><!--SRC=[dLVDRkCs4BxxAOXSajtD6jt-7GIqW6CR2zUr7TXU1Cab64kCpKWY3PAgAmK1sg1vWruMVOmUTs-rNgHFqY4bsP9YDrdxO5daSFxupJTZpNH0IOV1N498-W4eykzlVv99h3J5T-0k3K0oHiv1mWs3WDFRXl8PNu8v40ekt8KK8ILQHhIqenRWYHNZSt83WIhl18nJ7Iyf4L8lH6F1F4f2YZyzbRsuJBe1RJIEoGUbOSKePvIiudcmVlGYugEF9MqklYforo3uEGFNdqiHSQyj0Y79nO9fckq8wL6PhPu5A6PNMrAALNdntXZzuSKV53vlzNlTANdda0_ffyjfVtGnxBKlIOzCBYVJxk0BrJN8CRgLXVH1KMdYCYlcyoR21GuXTOZIihJEr3Mucls26pCX0epiUBkZeYMLvcHv4yEqpypGkHGtBB0fB0vA4O13A8z2SjVg37h3KzAVz5fNdLCowVR7tMbht6jDxqlQy4UcxMSnR_dkBSkk95Fu1d05ShytYpwZNkmG3pJLBAIbdL1uDAYBYoLJ3j7qLvqj5cPjdexU7P6tR-qZ3ySX9oDEfmA_NcM26y-ENXlX7ydHLyqc7h0AK1mYBII2_fOg_QfnA1A-TiWa_Tt0eD_xCXKMalcLPCMMmzg6po5PRLEOvudHM-MAbL1kRSTZrAL9AUTvkdBzdSXTY1MFomOOQhisLfZoHKsTZdKKP83OBeAlOzIn0LRDnaMSS32Lkp-8N7xZJUrYYYmuP2bK-X3DerlaWLr7x6EW4YFh2yDPT2PH-j1B_COXeydepDJnUDIvwWqloKbxDEw-ElX6HqhCe9xkMfRt91yB1AuZARm4YH2oWgdj9dF1e_eEU9AgFG0OepR6dmNO_wbe9u7Wlb1w9J9j5JIL6MImVam_dvBqa-1mIZe9OjCNpMRpVYkEFAyZjJd0g4fybBs8byZGWDhJ1wBO-kFz3fon9DRGYLIo16nQKlbGTSHt2EDwjwtjAf86mkr9hCTaZ0tGDS2ZAxv-r38XIq3gqf7TBn9fcETr3iIdcR6Y6GHU85ZMcKlk2DAAxWg-LaMRKZ6b4Qm_UgOkIlvKfOkgFPZ_ldN8O7BLnShf3QVTOVkdxi4rOmlwhWhrEiZdMQwmCUGjf22iPGtA1IU06-y1T8zhoh5FbKrgnB-xxJgxeRArcC7tQXNxwGF2zxsaSo4Pf7_WlLIWQqChGs5Zt2696Naa77m3ts47QlN7hK5tEBqyEFdjXKom4PQJWOH_pMKjxgVrPHa9Xy94boaf2xzau0o3J4AixbgFs6d5DgVPziI-nZQ005dI5DIpAgsRAeXcLIzBogwGLL-cfiw_5JL3244bhc5lsbu86RkBvr2TDNPQ0AeZGXoyaYNJ4DplPgS9-3WDKwvZWiLiIxj6EWPeMOqNL-iGCxkZP-89Gss5AzU4lNxpkkS8Odb7m7lLsnmZvaEGwKDSH3M0z27zJB5kp4sc3-j7Duc9XtL112h9J9VkUaDYg36puf3GT9sN2AQViIyLbi_nFylwCJ4G8mabE7OWTp8VGcO5YjJjdLJoczjhzp3v4eUdVwqOUDG_c1w-TqZRK4DhV7KmEKoeZxFoSzD3TMAl5iLxAMQLyr58dr1B0ju-bjqkhI3XyRKdzfNVkJ2vW-fuOgjscUzKXghyR1vXgGKRZ-sMTRtCtHiBMuhR5cRR52NWr50foqn7zP8BF7gnMWgEfyW9Pf3w4RT_O4g1x4AniC-iZk2f8v1L6XvwB__vUsPKkxU8-u13fjrkvvuqcyKlwwUPlukgmC7WFm00]--></g></svg>