<?xml version="1.0" encoding="us-ascii" standalone="no"?><svg xmlns="http://www.w3.org/2000/svg" xmlns:xlink="http://www.w3.org/1999/xlink" contentStyleType="text/css" height="1052px" preserveAspectRatio="none" style="width:538px;height:1052px;background:#FFFFFF;" version="1.1" viewBox="0 0 538 1052" width="538px" zoomAndPan="magnify"><defs/><g><text fill="#000000" font-family="sans-serif" font-size="14" font-weight="bold" lengthAdjust="spacing" textLength="316" x="109.5" y="34.5332">Proces Rejestracji Sakramentu Bierzmowania</text><ellipse cx="267" cy="58.6094" fill="#222222" rx="10" ry="10" style="stroke:#222222;stroke-width:1.0;"/><rect fill="#F1F1F1" height="35.0938" rx="12.5" ry="12.5" style="stroke:#181818;stroke-width:0.5;" width="195" x="169.5" y="88.6094"/><text fill="#000000" font-family="sans-serif" font-size="12" lengthAdjust="spacing" textLength="175" x="179.5" y="111.0664">Wyszukaj osob&#281; w bazie danych</text><rect fill="#F1F1F1" height="35.0938" rx="12.5" ry="12.5" style="stroke:#181818;stroke-width:0.5;" width="220" x="157" y="143.7031"/><text fill="#000000" font-family="sans-serif" font-size="12" lengthAdjust="spacing" textLength="200" x="167" y="166.1602">Wybierz opcj&#281; "Dodaj Bierzmowanie"</text><polygon fill="#F1F1F1" points="179,198.7969,355,198.7969,367,210.7969,355,222.7969,179,222.7969,167,210.7969,179,198.7969" style="stroke:#181818;stroke-width:0.5;"/><text fill="#000000" font-family="sans-serif" font-size="11" lengthAdjust="spacing" textLength="176" x="179" y="215.2979">Czy wpis bierzmowania ju&#380; istnieje?</text><text fill="#000000" font-family="sans-serif" font-size="11" lengthAdjust="spacing" textLength="17" x="150" y="208.3799">Tak</text><text fill="#000000" font-family="sans-serif" font-size="11" lengthAdjust="spacing" textLength="15" x="367" y="208.3799">Nie</text><rect fill="#F1F1F1" height="50.1875" rx="12.5" ry="12.5" style="stroke:#181818;stroke-width:0.5;" width="162" x="76" y="232.7969"/><text fill="#000000" font-family="sans-serif" font-size="12" lengthAdjust="spacing" textLength="142" x="86" y="255.2539">Wy&#347;wietl komunikat b&#322;&#281;du</text><text fill="#000000" font-family="sans-serif" font-size="12" lengthAdjust="spacing" textLength="97" x="86" y="270.3477">"Wpis ju&#380; istnieje"</text><ellipse cx="157" cy="313.9844" fill="none" rx="11" ry="11" style="stroke:#222222;stroke-width:1.0;"/><ellipse cx="157" cy="313.9844" fill="#222222" rx="6" ry="6" style="stroke:#222222;stroke-width:1.0;"/><rect fill="#F1F1F1" height="35.0938" rx="12.5" ry="12.5" style="stroke:#181818;stroke-width:0.5;" width="154" x="300" y="232.7969"/><text fill="#000000" font-family="sans-serif" font-size="12" lengthAdjust="spacing" textLength="134" x="310" y="255.2539">Wy&#347;wietl pusty formularz</text><rect fill="#F1F1F1" height="95.4688" rx="12.5" ry="12.5" style="stroke:#181818;stroke-width:0.5;" width="180" x="177" y="344.9844"/><text fill="#000000" font-family="sans-serif" font-size="12" lengthAdjust="spacing" textLength="160" x="187" y="367.4414">Wprowad&#378; dane sakramentu:</text><text fill="#000000" font-family="sans-serif" font-size="12" lengthAdjust="spacing" textLength="106" x="187" y="382.5352">- Data i Numer aktu</text><text fill="#000000" font-family="sans-serif" font-size="12" lengthAdjust="spacing" textLength="111" x="187" y="397.6289">- Imi&#281; bierzmowania</text><text fill="#000000" font-family="sans-serif" font-size="12" lengthAdjust="spacing" textLength="95" x="187" y="412.7227">- Szafarz (Biskup)</text><text fill="#000000" font-family="sans-serif" font-size="12" lengthAdjust="spacing" textLength="54" x="187" y="427.8164">- &#346;wiadek</text><rect fill="#F1F1F1" height="35.0938" rx="12.5" ry="12.5" style="stroke:#181818;stroke-width:0.5;" width="146" x="194" y="460.4531"/><text fill="#000000" font-family="sans-serif" font-size="12" lengthAdjust="spacing" textLength="126" x="204" y="482.9102">Kliknij przycisk "Zapisz"</text><rect fill="none" height="265.0781" style="stroke:#000000;stroke-width:1.5;" width="275" x="129.5" y="505.5469"/><path d="M289.5,505.5469 L289.5,516.1563 L279.5,526.1563 L129.5,526.1563 " fill="none" style="stroke:#000000;stroke-width:1.5;"/><text fill="#000000" font-family="sans-serif" font-size="14" lengthAdjust="spacing" textLength="150" x="132.5" y="521.0801">Operacje w tle (System)</text><rect fill="#F1F1F1" height="35.0938" rx="12.5" ry="12.5" style="stroke:#181818;stroke-width:0.5;" width="116" x="209" y="543.1563"/><text fill="#000000" font-family="sans-serif" font-size="12" lengthAdjust="spacing" textLength="96" x="219" y="565.6133">Walidacja danych</text><rect fill="#F1F1F1" height="35.0938" rx="12.5" ry="12.5" style="stroke:#181818;stroke-width:0.5;" width="255" x="139.5" y="598.25"/><text fill="#000000" font-family="sans-serif" font-size="12" lengthAdjust="spacing" textLength="151" x="149.5" y="620.707">Utworzenie rekordu w tabeli</text><text fill="#000000" font-family="sans-serif" font-size="12" font-weight="bold" lengthAdjust="spacing" textLength="81" x="303.5" y="620.707">Bierzmowanie</text><rect fill="#F1F1F1" height="50.1875" rx="12.5" ry="12.5" style="stroke:#181818;stroke-width:0.5;" width="215" x="159.5" y="653.3438"/><text fill="#000000" font-family="sans-serif" font-size="12" lengthAdjust="spacing" textLength="97" x="169.5" y="675.8008">Aktualizacja tabeli</text><text fill="#000000" font-family="sans-serif" font-size="12" font-weight="bold" lengthAdjust="spacing" textLength="37" x="269.5" y="675.8008">Osoba</text><text fill="#000000" font-family="sans-serif" font-size="12" lengthAdjust="spacing" textLength="195" x="169.5" y="690.8945">(Zapisanie imienia z bierzmowania)</text><rect fill="#F1F1F1" height="35.0938" rx="12.5" ry="12.5" style="stroke:#181818;stroke-width:0.5;" width="174" x="180" y="723.5313"/><text fill="#000000" font-family="sans-serif" font-size="12" lengthAdjust="spacing" textLength="154" x="190" y="745.9883">Zapisanie Logu Akcji (Audyt)</text><rect fill="#F1F1F1" height="35.0938" rx="12.5" ry="12.5" style="stroke:#181818;stroke-width:0.5;" width="251" x="141.5" y="790.625"/><text fill="#000000" font-family="sans-serif" font-size="12" lengthAdjust="spacing" textLength="231" x="151.5" y="813.082">Wy&#347;wietl komunikat "Zapisano pomy&#347;lnie"</text><polygon fill="#F1F1F1" points="133.5,845.7188,400.5,845.7188,412.5,857.7188,400.5,869.7188,133.5,869.7188,121.5,857.7188,133.5,845.7188" style="stroke:#181818;stroke-width:0.5;"/><text fill="#000000" font-family="sans-serif" font-size="11" lengthAdjust="spacing" textLength="267" x="133.5" y="862.2197">Czy chcesz wydrukowa&#263; &#347;wiadectwo bierzmowania?</text><text fill="#000000" font-family="sans-serif" font-size="11" lengthAdjust="spacing" textLength="17" x="104.5" y="855.3018">Tak</text><text fill="#000000" font-family="sans-serif" font-size="11" lengthAdjust="spacing" textLength="15" x="412.5" y="855.3018">Nie</text><rect fill="#F1F1F1" height="35.0938" rx="12.5" ry="12.5" style="stroke:#181818;stroke-width:0.5;" width="149" x="37" y="879.7188"/><text fill="#000000" font-family="sans-serif" font-size="12" lengthAdjust="spacing" textLength="129" x="47" y="902.1758">Generuj dokument PDF</text><rect fill="#F1F1F1" height="35.0938" rx="12.5" ry="12.5" style="stroke:#181818;stroke-width:0.5;" width="201" x="11" y="934.8125"/><text fill="#000000" font-family="sans-serif" font-size="12" lengthAdjust="spacing" textLength="181" x="21" y="957.2695">Wydrukuj lub Pobierz plik na dysk</text><rect fill="#F1F1F1" height="35.0938" rx="12.5" ry="12.5" style="stroke:#181818;stroke-width:0.5;" width="209" x="318" y="879.7188"/><text fill="#000000" font-family="sans-serif" font-size="12" lengthAdjust="spacing" textLength="189" x="328" y="902.1758">Wr&#243;&#263; do widoku szczeg&#243;&#322;&#243;w osoby</text><polygon fill="#F1F1F1" points="267,975.9063,279,987.9063,267,999.9063,255,987.9063,267,975.9063" style="stroke:#181818;stroke-width:0.5;"/><ellipse cx="267" cy="1030.9063" fill="none" rx="11" ry="11" style="stroke:#222222;stroke-width:1.0;"/><ellipse cx="267" cy="1030.9063" fill="#222222" rx="6" ry="6" style="stroke:#222222;stroke-width:1.0;"/><line style="stroke:#181818;stroke-width:1.0;" x1="267" x2="267" y1="68.6094" y2="88.6094"/><polygon fill="#181818" points="263,78.6094,267,88.6094,271,78.6094,267,82.6094" style="stroke:#181818;stroke-width:1.0;"/><line style="stroke:#181818;stroke-width:1.0;" x1="267" x2="267" y1="123.7031" y2="143.7031"/><polygon fill="#181818" points="263,133.7031,267,143.7031,271,133.7031,267,137.7031" style="stroke:#181818;stroke-width:1.0;"/><line style="stroke:#181818;stroke-width:1.0;" x1="157" x2="157" y1="282.9844" y2="302.9844"/><polygon fill="#181818" points="153,292.9844,157,302.9844,161,292.9844,157,296.9844" style="stroke:#181818;stroke-width:1.0;"/><line style="stroke:#181818;stroke-width:1.0;" x1="167" x2="157" y1="210.7969" y2="210.7969"/><line style="stroke:#181818;stroke-width:1.0;" x1="157" x2="157" y1="210.7969" y2="232.7969"/><polygon fill="#181818" points="153,222.7969,157,232.7969,161,222.7969,157,226.7969" style="stroke:#181818;stroke-width:1.0;"/><line style="stroke:#181818;stroke-width:1.0;" x1="367" x2="377" y1="210.7969" y2="210.7969"/><line style="stroke:#181818;stroke-width:1.0;" x1="377" x2="377" y1="210.7969" y2="232.7969"/><polygon fill="#181818" points="373,222.7969,377,232.7969,381,222.7969,377,226.7969" style="stroke:#181818;stroke-width:1.0;"/><line style="stroke:#181818;stroke-width:1.0;" x1="377" x2="377" y1="267.8906" y2="329.9844"/><line style="stroke:#181818;stroke-width:1.0;" x1="377" x2="267" y1="329.9844" y2="329.9844"/><line style="stroke:#181818;stroke-width:1.0;" x1="267" x2="267" y1="329.9844" y2="344.9844"/><polygon fill="#181818" points="263,334.9844,267,344.9844,271,334.9844,267,338.9844" style="stroke:#181818;stroke-width:1.0;"/><line style="stroke:#181818;stroke-width:1.0;" x1="267" x2="267" y1="178.7969" y2="198.7969"/><polygon fill="#181818" points="263,188.7969,267,198.7969,271,188.7969,267,192.7969" style="stroke:#181818;stroke-width:1.0;"/><line style="stroke:#181818;stroke-width:1.0;" x1="267" x2="267" y1="440.4531" y2="460.4531"/><polygon fill="#181818" points="263,450.4531,267,460.4531,271,450.4531,267,454.4531" style="stroke:#181818;stroke-width:1.0;"/><line style="stroke:#181818;stroke-width:1.0;" x1="267" x2="267" y1="578.25" y2="598.25"/><polygon fill="#181818" points="263,588.25,267,598.25,271,588.25,267,592.25" style="stroke:#181818;stroke-width:1.0;"/><line style="stroke:#181818;stroke-width:1.0;" x1="267" x2="267" y1="633.3438" y2="653.3438"/><polygon fill="#181818" points="263,643.3438,267,653.3438,271,643.3438,267,647.3438" style="stroke:#181818;stroke-width:1.0;"/><line style="stroke:#181818;stroke-width:1.0;" x1="267" x2="267" y1="703.5313" y2="723.5313"/><polygon fill="#181818" points="263,713.5313,267,723.5313,271,713.5313,267,717.5313" style="stroke:#181818;stroke-width:1.0;"/><line style="stroke:#181818;stroke-width:1.0;" x1="267" x2="267" y1="495.5469" y2="543.1563"/><polygon fill="#181818" points="263,533.1563,267,543.1563,271,533.1563,267,537.1563" style="stroke:#181818;stroke-width:1.0;"/><line style="stroke:#181818;stroke-width:1.0;" x1="267" x2="267" y1="758.625" y2="790.625"/><polygon fill="#181818" points="263,780.625,267,790.625,271,780.625,267,784.625" style="stroke:#181818;stroke-width:1.0;"/><line style="stroke:#181818;stroke-width:1.0;" x1="111.5" x2="111.5" y1="914.8125" y2="934.8125"/><polygon fill="#181818" points="107.5,924.8125,111.5,934.8125,115.5,924.8125,111.5,928.8125" style="stroke:#181818;stroke-width:1.0;"/><line style="stroke:#181818;stroke-width:1.0;" x1="121.5" x2="111.5" y1="857.7188" y2="857.7188"/><line style="stroke:#181818;stroke-width:1.0;" x1="111.5" x2="111.5" y1="857.7188" y2="879.7188"/><polygon fill="#181818" points="107.5,869.7188,111.5,879.7188,115.5,869.7188,111.5,873.7188" style="stroke:#181818;stroke-width:1.0;"/><line style="stroke:#181818;stroke-width:1.0;" x1="412.5" x2="422.5" y1="857.7188" y2="857.7188"/><line style="stroke:#181818;stroke-width:1.0;" x1="422.5" x2="422.5" y1="857.7188" y2="879.7188"/><polygon fill="#181818" points="418.5,869.7188,422.5,879.7188,426.5,869.7188,422.5,873.7188" style="stroke:#181818;stroke-width:1.0;"/><line style="stroke:#181818;stroke-width:1.0;" x1="111.5" x2="111.5" y1="969.9063" y2="987.9063"/><line style="stroke:#181818;stroke-width:1.0;" x1="111.5" x2="255" y1="987.9063" y2="987.9063"/><polygon fill="#181818" points="245,983.9063,255,987.9063,245,991.9063,249,987.9063" style="stroke:#181818;stroke-width:1.0;"/><line style="stroke:#181818;stroke-width:1.0;" x1="422.5" x2="422.5" y1="914.8125" y2="987.9063"/><line style="stroke:#181818;stroke-width:1.0;" x1="422.5" x2="279" y1="987.9063" y2="987.9063"/><polygon fill="#181818" points="289,983.9063,279,987.9063,289,991.9063,285,987.9063" style="stroke:#181818;stroke-width:1.0;"/><line style="stroke:#181818;stroke-width:1.0;" x1="267" x2="267" y1="825.7188" y2="845.7188"/><polygon fill="#181818" points="263,835.7188,267,845.7188,271,835.7188,267,839.7188" style="stroke:#181818;stroke-width:1.0;"/><line style="stroke:#181818;stroke-width:1.0;" x1="267" x2="267" y1="999.9063" y2="1019.9063"/><polygon fill="#181818" points="263,1009.9063,267,1019.9063,271,1009.9063,267,1013.9063" style="stroke:#181818;stroke-width:1.0;"/><!--SRC=[PLFDQXH14BxtKnHxSNR15yWU974nY9A4H0c8bvgPscpDJ_VGFmpJuYK8FaFqCNAJt99vBwjduxf9ZjrLzNLzF-tPDmHdrXJau9mgSjvYKJ5SO6sn9Uq3737Ps9eUDQDoDUiEfGIjqQROMDCIU1jeh-8sM9gUzHMiiN6aNi7bq0ONIJD1PutpGx61XZNptfISoGyTWR5-Oq0fvz5wfGuk1nT3ZHKOP_A76-WXnoX89Mh1MQQ6FAq8fYiggSzMffJklRLfjbIonOgA8LO8sRbfyxdYDMHlum1znmxoFP9GXV4Es7cPhEZD7Fo6D6IVi9uh07bk_Dqp-GPgqmRDDNh8n-k7cp9yrRFBXFO4G1u7SDvqYaGDo4wOdk5qGII1jR5jQD36fI9TyZfH5xLwBCS_YIo1svboe5x32Zq2mqbeoGBMFiZT-vP5WNqoSdaHSIsma1sngqCtbwlnLyzOKYswg8CF3TUQAx4c3eMqmEmB2ekuLUtOXcwh8c3mfaLnBoRbeOoCupMEFy0DpbCRb3ZfsRFHC3ljA2M9nAuKiUnYQfdFuDl47HikfOmx5-Noi- -DtQR4Kcri6T8mvjGmB1RxVYuMqy2Xa1QWE07j6ayb9hXOI4CsyPXMvvOfMHkVY3EVOFvtVJHN0Gxhz06omr0ENXg-Jn5yQVdiSSn0PrgfDuyv-nUhOYD_Aa8_b3RKyjp3JqWWedeXF9-iyI9YnwJ9XWfAKuVaDvojtYstcKbeKcb23cTcc_jE_0CjKWvE37qMCdj_Ao-N1dfEQE1Y4Udg_dQylh_jfoyrxFAMGleN]--></g></svg>