<?xml version="1.0" encoding="us-ascii" standalone="no"?><svg xmlns="http://www.w3.org/2000/svg" xmlns:xlink="http://www.w3.org/1999/xlink" contentStyleType="text/css" height="1153px" preserveAspectRatio="none" style="width:491px;height:1153px;background:#FFFFFF;" version="1.1" viewBox="0 0 491 1153" width="491px" zoomAndPan="magnify"><defs/><g><text fill="#000000" font-family="sans-serif" font-size="14" font-weight="bold" lengthAdjust="spacing" textLength="258" x="115" y="34.5332">Proces Dodawania Osoby do Rodziny</text><ellipse cx="254.25" cy="58.6094" fill="#222222" rx="10" ry="10" style="stroke:#222222;stroke-width:1.0;"/><rect fill="#F1F1F1" height="35.0938" rx="12.5" ry="12.5" style="stroke:#181818;stroke-width:0.5;" width="220" x="144.25" y="88.6094"/><text fill="#000000" font-family="sans-serif" font-size="12" lengthAdjust="spacing" textLength="200" x="154.25" y="111.0664">Otw&#243;rz kartotek&#281; Rodziny (Szczeg&#243;&#322;y)</text><rect fill="#F1F1F1" height="35.0938" rx="12.5" ry="12.5" style="stroke:#181818;stroke-width:0.5;" width="228" x="140.25" y="143.7031"/><text fill="#000000" font-family="sans-serif" font-size="12" lengthAdjust="spacing" textLength="208" x="150.25" y="166.1602">Kliknij przycisk "Dodaj cz&#322;onka rodziny"</text><rect fill="#F1F1F1" height="50.1875" rx="12.5" ry="12.5" style="stroke:#181818;stroke-width:0.5;" width="153" x="177.75" y="198.7969"/><text fill="#000000" font-family="sans-serif" font-size="12" lengthAdjust="spacing" textLength="133" x="187.75" y="221.2539">Wyszukaj osob&#281; w bazie</text><text fill="#000000" font-family="sans-serif" font-size="12" lengthAdjust="spacing" textLength="122" x="193.75" y="236.3477">(Wpisz nazwisko/imi&#281;)</text><polygon fill="#F1F1F1" points="169.25,268.9844,339.25,268.9844,351.25,280.9844,339.25,292.9844,169.25,292.9844,157.25,280.9844,169.25,268.9844" style="stroke:#181818;stroke-width:0.5;"/><text fill="#000000" font-family="sans-serif" font-size="11" lengthAdjust="spacing" textLength="170" x="169.25" y="285.4854">Czy osoba istnieje ju&#380; w systemie?</text><text fill="#000000" font-family="sans-serif" font-size="11" lengthAdjust="spacing" textLength="17" x="140.25" y="278.5674">Tak</text><text fill="#000000" font-family="sans-serif" font-size="11" lengthAdjust="spacing" textLength="15" x="351.25" y="278.5674">Nie</text><rect fill="#F1F1F1" height="35.0938" rx="12.5" ry="12.5" style="stroke:#181818;stroke-width:0.5;" width="181" x="56.75" y="302.9844"/><text fill="#000000" font-family="sans-serif" font-size="12" lengthAdjust="spacing" textLength="161" x="66.75" y="325.4414">Wybierz osob&#281; z listy wynik&#243;w</text><rect fill="#F1F1F1" height="35.0938" rx="12.5" ry="12.5" style="stroke:#181818;stroke-width:0.5;" width="172" x="275.25" y="302.9844"/><text fill="#000000" font-family="sans-serif" font-size="12" lengthAdjust="spacing" textLength="152" x="285.25" y="325.4414">Kliknij "Utw&#243;rz now&#261; osob&#281;"</text><rect fill="#F1F1F1" height="50.1875" rx="12.5" ry="12.5" style="stroke:#181818;stroke-width:0.5;" width="163" x="279.75" y="358.0781"/><text fill="#000000" font-family="sans-serif" font-size="12" lengthAdjust="spacing" textLength="143" x="289.75" y="380.5352">Wype&#322;nij dane personalne</text><text fill="#000000" font-family="sans-serif" font-size="12" lengthAdjust="spacing" textLength="140" x="289.75" y="395.6289">(Imi&#281;, Nazwisko, Data ur.)</text><rect fill="#F1F1F1" height="35.0938" rx="12.5" ry="12.5" style="stroke:#181818;stroke-width:0.5;" width="171" x="275.75" y="428.2656"/><text fill="#000000" font-family="sans-serif" font-size="12" lengthAdjust="spacing" textLength="151" x="285.75" y="450.7227">Zapisz now&#261; osob&#281; w bazie</text><polygon fill="#F1F1F1" points="254.25,469.3594,266.25,481.3594,254.25,493.3594,242.25,481.3594,254.25,469.3594" style="stroke:#181818;stroke-width:0.5;"/><polygon fill="#F1F1F1" points="166.75,513.3594,341.75,513.3594,353.75,525.3594,341.75,537.3594,166.75,537.3594,154.75,525.3594,166.75,513.3594" style="stroke:#181818;stroke-width:0.5;"/><text fill="#000000" font-family="sans-serif" font-size="11" lengthAdjust="spacing" textLength="175" x="166.75" y="529.8604">Czy ta osoba jest ju&#380; w tej rodzinie?</text><text fill="#000000" font-family="sans-serif" font-size="11" lengthAdjust="spacing" textLength="17" x="137.75" y="522.9424">Tak</text><text fill="#000000" font-family="sans-serif" font-size="11" lengthAdjust="spacing" textLength="15" x="353.75" y="522.9424">Nie</text><rect fill="#F1F1F1" height="50.1875" rx="12.5" ry="12.5" style="stroke:#181818;stroke-width:0.5;" width="242" x="11" y="547.3594"/><text fill="#000000" font-family="sans-serif" font-size="12" lengthAdjust="spacing" textLength="78" x="21" y="569.8164">Wy&#347;wietl b&#322;&#261;d:</text><text fill="#000000" font-family="sans-serif" font-size="12" lengthAdjust="spacing" textLength="222" x="21" y="584.9102">"Osoba jest ju&#380; przypisana do tej rodziny"</text><ellipse cx="132" cy="628.5469" fill="none" rx="11" ry="11" style="stroke:#222222;stroke-width:1.0;"/><ellipse cx="132" cy="628.5469" fill="#222222" rx="6" ry="6" style="stroke:#222222;stroke-width:1.0;"/><rect fill="#F1F1F1" height="35.0938" rx="12.5" ry="12.5" style="stroke:#181818;stroke-width:0.5;" width="207" x="273" y="547.3594"/><text fill="#000000" font-family="sans-serif" font-size="12" lengthAdjust="spacing" textLength="187" x="283" y="569.8164">Przejd&#378; do formularza cz&#322;onkostwa</text><rect fill="#F1F1F1" height="65.2813" rx="12.5" ry="12.5" style="stroke:#181818;stroke-width:0.5;" width="223" x="142.75" y="659.5469"/><text fill="#000000" font-family="sans-serif" font-size="12" lengthAdjust="spacing" textLength="130" x="152.75" y="682.0039">Okre&#347;l szczeg&#243;&#322;y relacji:</text><text fill="#000000" font-family="sans-serif" font-size="12" lengthAdjust="spacing" textLength="4" x="152.75" y="697.0977">-</text><text fill="#000000" font-family="sans-serif" font-size="12" font-weight="bold" lengthAdjust="spacing" textLength="25" x="159.75" y="697.0977">Rola</text><text fill="#000000" font-family="sans-serif" font-size="12" lengthAdjust="spacing" textLength="142" x="187.75" y="697.0977">(M&#261;&#380;, &#379;ona, Dziecko, Inna)</text><text fill="#000000" font-family="sans-serif" font-size="12" lengthAdjust="spacing" textLength="4" x="152.75" y="712.1914">-</text><text fill="#000000" font-family="sans-serif" font-size="12" font-weight="bold" lengthAdjust="spacing" textLength="37" x="159.75" y="712.1914">Status</text><text fill="#000000" font-family="sans-serif" font-size="12" lengthAdjust="spacing" textLength="156" x="199.75" y="712.1914">(Mieszka, Wyprowadzi&#322;/a si&#281;)</text><rect fill="#F1F1F1" height="35.0938" rx="12.5" ry="12.5" style="stroke:#181818;stroke-width:0.5;" width="165" x="171.75" y="744.8281"/><text fill="#000000" font-family="sans-serif" font-size="12" lengthAdjust="spacing" textLength="145" x="181.75" y="767.2852">Kliknij "Zapisz powi&#261;zanie"</text><rect fill="none" height="185.0781" style="stroke:#000000;stroke-width:1.5;" width="290" x="109.25" y="789.9219"/><path d="M269.25,789.9219 L269.25,800.5313 L259.25,810.5313 L109.25,810.5313 " fill="none" style="stroke:#000000;stroke-width:1.5;"/><text fill="#000000" font-family="sans-serif" font-size="14" lengthAdjust="spacing" textLength="150" x="112.25" y="805.4551">Operacje w tle (System)</text><rect fill="#F1F1F1" height="65.2813" rx="12.5" ry="12.5" style="stroke:#181818;stroke-width:0.5;" width="233" x="137.75" y="827.5313"/><text fill="#000000" font-family="sans-serif" font-size="12" lengthAdjust="spacing" textLength="213" x="147.75" y="849.9883">Utworzenie rekordu w tabeli po&#347;redniej</text><text fill="#000000" font-family="sans-serif" font-size="12" font-weight="bold" lengthAdjust="spacing" textLength="117" x="147.75" y="865.082">CzlonkostwoRodziny</text><text fill="#000000" font-family="sans-serif" font-size="12" lengthAdjust="spacing" textLength="180" x="147.75" y="880.1758">(Rodzina_ID + Osoba_ID + Rola)</text><rect fill="#F1F1F1" height="50.1875" rx="12.5" ry="12.5" style="stroke:#181818;stroke-width:0.5;" width="270" x="119.25" y="912.8125"/><text fill="#000000" font-family="sans-serif" font-size="12" lengthAdjust="spacing" textLength="114" x="129.25" y="935.2695">Zapisanie Logu Akcji</text><text fill="#000000" font-family="sans-serif" font-size="12" lengthAdjust="spacing" textLength="250" x="129.25" y="950.3633">(np. "Przypisano Jana do rodziny Kowalskich")</text><rect fill="#F1F1F1" height="35.0938" rx="12.5" ry="12.5" style="stroke:#181818;stroke-width:0.5;" width="279" x="114.75" y="995"/><text fill="#000000" font-family="sans-serif" font-size="12" lengthAdjust="spacing" textLength="259" x="124.75" y="1017.457">Wy&#347;wietl komunikat "Osoba dodana do rodziny"</text><rect fill="#F1F1F1" height="50.1875" rx="12.5" ry="12.5" style="stroke:#181818;stroke-width:0.5;" width="266" x="121.25" y="1050.0938"/><text fill="#000000" font-family="sans-serif" font-size="12" lengthAdjust="spacing" textLength="177" x="131.25" y="1072.5508">Od&#347;wie&#380; widok kartoteki Rodziny</text><text fill="#000000" font-family="sans-serif" font-size="12" lengthAdjust="spacing" textLength="246" x="131.25" y="1087.6445">(Nowa osoba pojawia si&#281; na li&#347;cie cz&#322;onk&#243;w)</text><ellipse cx="254.25" cy="1131.2813" fill="none" rx="11" ry="11" style="stroke:#222222;stroke-width:1.0;"/><ellipse cx="254.25" cy="1131.2813" fill="#222222" rx="6" ry="6" style="stroke:#222222;stroke-width:1.0;"/><line style="stroke:#181818;stroke-width:1.0;" x1="254.25" x2="254.25" y1="68.6094" y2="88.6094"/><polygon fill="#181818" points="250.25,78.6094,254.25,88.6094,258.25,78.6094,254.25,82.6094" style="stroke:#181818;stroke-width:1.0;"/><line style="stroke:#181818;stroke-width:1.0;" x1="254.25" x2="254.25" y1="123.7031" y2="143.7031"/><polygon fill="#181818" points="250.25,133.7031,254.25,143.7031,258.25,133.7031,254.25,137.7031" style="stroke:#181818;stroke-width:1.0;"/><line style="stroke:#181818;stroke-width:1.0;" x1="254.25" x2="254.25" y1="178.7969" y2="198.7969"/><polygon fill="#181818" points="250.25,188.7969,254.25,198.7969,258.25,188.7969,254.25,192.7969" style="stroke:#181818;stroke-width:1.0;"/><line style="stroke:#181818;stroke-width:1.0;" x1="361.25" x2="361.25" y1="338.0781" y2="358.0781"/><polygon fill="#181818" points="357.25,348.0781,361.25,358.0781,365.25,348.0781,361.25,352.0781" style="stroke:#181818;stroke-width:1.0;"/><line style="stroke:#181818;stroke-width:1.0;" x1="361.25" x2="361.25" y1="408.2656" y2="428.2656"/><polygon fill="#181818" points="357.25,418.2656,361.25,428.2656,365.25,418.2656,361.25,422.2656" style="stroke:#181818;stroke-width:1.0;"/><line style="stroke:#181818;stroke-width:1.0;" x1="157.25" x2="147.25" y1="280.9844" y2="280.9844"/><line style="stroke:#181818;stroke-width:1.0;" x1="147.25" x2="147.25" y1="280.9844" y2="302.9844"/><polygon fill="#181818" points="143.25,292.9844,147.25,302.9844,151.25,292.9844,147.25,296.9844" style="stroke:#181818;stroke-width:1.0;"/><line style="stroke:#181818;stroke-width:1.0;" x1="351.25" x2="361.25" y1="280.9844" y2="280.9844"/><line style="stroke:#181818;stroke-width:1.0;" x1="361.25" x2="361.25" y1="280.9844" y2="302.9844"/><polygon fill="#181818" points="357.25,292.9844,361.25,302.9844,365.25,292.9844,361.25,296.9844" style="stroke:#181818;stroke-width:1.0;"/><line style="stroke:#181818;stroke-width:1.0;" x1="147.25" x2="147.25" y1="338.0781" y2="481.3594"/><line style="stroke:#181818;stroke-width:1.0;" x1="147.25" x2="242.25" y1="481.3594" y2="481.3594"/><polygon fill="#181818" points="232.25,477.3594,242.25,481.3594,232.25,485.3594,236.25,481.3594" style="stroke:#181818;stroke-width:1.0;"/><line style="stroke:#181818;stroke-width:1.0;" x1="361.25" x2="361.25" y1="463.3594" y2="481.3594"/><line style="stroke:#181818;stroke-width:1.0;" x1="361.25" x2="266.25" y1="481.3594" y2="481.3594"/><polygon fill="#181818" points="276.25,477.3594,266.25,481.3594,276.25,485.3594,272.25,481.3594" style="stroke:#181818;stroke-width:1.0;"/><line style="stroke:#181818;stroke-width:1.0;" x1="254.25" x2="254.25" y1="248.9844" y2="268.9844"/><polygon fill="#181818" points="250.25,258.9844,254.25,268.9844,258.25,258.9844,254.25,262.9844" style="stroke:#181818;stroke-width:1.0;"/><line style="stroke:#181818;stroke-width:1.0;" x1="132" x2="132" y1="597.5469" y2="617.5469"/><polygon fill="#181818" points="128,607.5469,132,617.5469,136,607.5469,132,611.5469" style="stroke:#181818;stroke-width:1.0;"/><line style="stroke:#181818;stroke-width:1.0;" x1="154.75" x2="132" y1="525.3594" y2="525.3594"/><line style="stroke:#181818;stroke-width:1.0;" x1="132" x2="132" y1="525.3594" y2="547.3594"/><polygon fill="#181818" points="128,537.3594,132,547.3594,136,537.3594,132,541.3594" style="stroke:#181818;stroke-width:1.0;"/><line style="stroke:#181818;stroke-width:1.0;" x1="353.75" x2="376.5" y1="525.3594" y2="525.3594"/><line style="stroke:#181818;stroke-width:1.0;" x1="376.5" x2="376.5" y1="525.3594" y2="547.3594"/><polygon fill="#181818" points="372.5,537.3594,376.5,547.3594,380.5,537.3594,376.5,541.3594" style="stroke:#181818;stroke-width:1.0;"/><line style="stroke:#181818;stroke-width:1.0;" x1="376.5" x2="376.5" y1="582.4531" y2="644.5469"/><line style="stroke:#181818;stroke-width:1.0;" x1="376.5" x2="254.25" y1="644.5469" y2="644.5469"/><line style="stroke:#181818;stroke-width:1.0;" x1="254.25" x2="254.25" y1="644.5469" y2="659.5469"/><polygon fill="#181818" points="250.25,649.5469,254.25,659.5469,258.25,649.5469,254.25,653.5469" style="stroke:#181818;stroke-width:1.0;"/><line style="stroke:#181818;stroke-width:1.0;" x1="254.25" x2="254.25" y1="493.3594" y2="513.3594"/><polygon fill="#181818" points="250.25,503.3594,254.25,513.3594,258.25,503.3594,254.25,507.3594" style="stroke:#181818;stroke-width:1.0;"/><line style="stroke:#181818;stroke-width:1.0;" x1="254.25" x2="254.25" y1="724.8281" y2="744.8281"/><polygon fill="#181818" points="250.25,734.8281,254.25,744.8281,258.25,734.8281,254.25,738.8281" style="stroke:#181818;stroke-width:1.0;"/><line style="stroke:#181818;stroke-width:1.0;" x1="254.25" x2="254.25" y1="892.8125" y2="912.8125"/><polygon fill="#181818" points="250.25,902.8125,254.25,912.8125,258.25,902.8125,254.25,906.8125" style="stroke:#181818;stroke-width:1.0;"/><line style="stroke:#181818;stroke-width:1.0;" x1="254.25" x2="254.25" y1="779.9219" y2="827.5313"/><polygon fill="#181818" points="250.25,817.5313,254.25,827.5313,258.25,817.5313,254.25,821.5313" style="stroke:#181818;stroke-width:1.0;"/><line style="stroke:#181818;stroke-width:1.0;" x1="254.25" x2="254.25" y1="963" y2="995"/><polygon fill="#181818" points="250.25,985,254.25,995,258.25,985,254.25,989" style="stroke:#181818;stroke-width:1.0;"/><line style="stroke:#181818;stroke-width:1.0;" x1="254.25" x2="254.25" y1="1030.0938" y2="1050.0938"/><polygon fill="#181818" points="250.25,1040.0938,254.25,1050.0938,258.25,1040.0938,254.25,1044.0938" style="stroke:#181818;stroke-width:1.0;"/><line style="stroke:#181818;stroke-width:1.0;" x1="254.25" x2="254.25" y1="1100.2813" y2="1120.2813"/><polygon fill="#181818" points="250.25,1110.2813,254.25,1120.2813,258.25,1110.2813,254.25,1114.2813" style="stroke:#181818;stroke-width:1.0;"/><!--SRC=[RLJBRjim4BphAnQ-L5RJvEuSYYA-f6dZ86aHe9TYBT4sHPaha1G4iUZ5W3yYy6VarkOMwx-wbEL7YzuaSNQvCpiZ9rqXuCvGAYoCASCQjKIOM9esa17SK-QbRYAhf2xHu1AMf2bT65eASAOI9oTsWHdLKizXXeKzFIca5guf1P1n2u8eiWwDYwBHnDMlpyQ3ubToGcsVzZT2_E1JB-Qlp-sg6Lv6evj2AYrpA8rlKcaL3CAuEQI-NP5M26PNE63iOsDzfVYGc0Vth66ANee887uifVMWqTVSWoxaKcwVk7tq1iOYRNoE8xZoJLU8a0lhziNl8pc3-7WchTDIv0BogdrXa6si4ql63S4jX8Ru2weXtyZ3JALWZlqidjMmhe6wqLAzFjUNaM2n8BwLeeFlUGw-zjfeghVhlfh9THrBqQu2A4Cje1J6aiP2TmIl0wCpkEqPdi4O7K9bpeTTxJVS2N3ITC-G9z6Pd0Kj7h6G6QOvGa5pcNgD1_RSx4ISdhmJUQ__VmLeDxKKhe1fkzgkin5_74p-wH7MofEXnc2xOx-cesmTbV_eT6UyoBFsLu3Fo2oh0et7lHt8kXeFX4OJPKIxAS0UFGL65CnGZg9ta2JtL62IGFnvksvVpg3zpOAoTAnA6ZIyrXg77V31eQji1vN2UiKeNeUX6ddQTdM1O7j77JVPQrvoEBPhpm4JJ2hYQ3Zf96aMWrV8iuYW9CSnVkYyD1p0Zy2KZK1CbijuPaKcgm8EfwAGtBFT69459p8qIQvyqREdFaX94bonUy7lrsDuswMxVmoyEsCSl176Wqyqh-23Odb2iIxFON2tNn31ntvB_ORWXjaNdFPqCU1UFwFePEMAbXKR7Tr-vHcdzg_o4DX9rk63bsH6wl0_a8SVK7pBb_JEAod7MkwKvYXpeDfDobFtk-TG1Vs3P_u0]--></g></svg>